<?xml version="1.0" standalone="no"?>
<!DOCTYPE svg PUBLIC "-//W3C//DTD SVG 20010904//EN"
 "http://www.w3.org/TR/2001/REC-SVG-20010904/DTD/svg10.dtd">
<svg version="1.0" xmlns="http://www.w3.org/2000/svg"
 width="600.000000pt" height="723.000000pt" viewBox="0 0 600.000000 723.000000"
 preserveAspectRatio="xMidYMid meet">
<metadata>
Created by potrace 1.16, written by Peter Selinger 2001-2019
</metadata>
<g transform="translate(0.000000,723.000000) scale(0.100000,-0.100000)"
fill="#000000" stroke="none">
<path d="M1973 7056 c-60 -21 -67 -42 -58 -180 5 -66 9 -173 10 -236 3 -257
36 -416 161 -784 19 -55 34 -112 34 -127 0 -34 -40 -146 -82 -231 -17 -34 -34
-73 -39 -88 -14 -45 -54 -136 -72 -163 -9 -15 -17 -31 -17 -37 0 -6 -15 -43
-34 -83 -19 -40 -40 -84 -46 -97 -46 -100 -66 -125 -135 -162 -37 -21 -79 -38
-92 -38 -20 0 -23 3 -17 28 4 15 26 55 50 89 36 50 41 62 28 67 -20 8 -45 -21
-41 -48 1 -10 -7 -24 -18 -30 -28 -15 -33 -25 -27 -49 3 -13 1 -18 -6 -13 -8
5 -10 2 -6 -8 3 -9 2 -16 -4 -16 -6 0 -13 6 -15 13 -3 7 -6 5 -6 -5 -1 -10 8
-22 19 -28 11 -6 20 -20 19 -33 0 -21 -1 -21 -8 -2 -5 13 -18 20 -35 20 -27 1
-35 -10 -13 -18 9 -3 9 -9 0 -25 -10 -17 -10 -24 2 -36 13 -12 13 -16 2 -23
-8 -4 -21 -23 -30 -40 -14 -30 -14 -34 1 -43 12 -6 13 -9 3 -10 -8 0 -11 -7
-8 -20 3 -11 0 -20 -5 -20 -7 0 -7 -5 -1 -12 5 -7 8 -34 8 -60 -1 -32 3 -48
11 -48 16 0 26 -28 12 -36 -6 -4 -8 -3 -4 4 3 6 2 13 -4 17 -6 3 -10 -4 -10
-17 0 -23 -12 -48 -23 -51 -8 -2 -36 35 -37 47 0 5 6 3 14 -4 12 -9 15 -8 13
8 0 12 -6 18 -14 15 -12 -5 -19 18 -13 42 2 6 2 18 2 28 -1 20 14 23 21 5 4
-10 6 -10 6 0 1 18 -19 38 -47 47 -18 5 -21 10 -12 20 6 8 18 11 26 8 8 -3 14
0 14 6 0 6 -4 11 -10 11 -5 0 -10 5 -10 10 0 6 6 10 14 10 8 0 16 7 20 15 3 8
1 15 -4 15 -5 0 -8 21 -7 48 l2 47 -33 -3 c-18 -2 -40 2 -49 10 -9 7 -14 8
-11 3 11 -17 -2 -29 -95 -89 -49 -31 -127 -91 -175 -132 -120 -103 -155 -119
-245 -110 -40 4 -97 11 -127 16 -234 37 -261 36 -259 -8 1 -25 -9 -78 -44
-238 -8 -33 -28 -89 -46 -125 -37 -70 -50 -156 -32 -201 13 -34 66 -68 104
-68 15 0 45 9 67 20 22 11 63 26 92 34 29 8 60 17 69 21 9 3 56 15 105 26 49
10 96 21 104 23 8 2 40 7 70 11 30 4 67 14 82 21 15 8 41 14 57 14 27 0 30 -3
27 -27 -2 -16 -1 -22 1 -15 6 16 23 16 23 -1 0 -7 11 -24 24 -39 14 -14 22
-29 19 -32 -4 -3 1 -6 10 -6 23 0 21 -13 -4 -41 -20 -24 -20 -24 -9 -1 7 15 7
22 0 22 -5 0 -10 -4 -10 -10 0 -5 -7 -10 -15 -10 -8 0 -15 7 -15 15 0 7 -6 18
-14 22 -8 4 -16 19 -18 33 -4 22 -5 20 -12 -12 -11 -50 -3 -75 39 -134 74
-104 90 -168 41 -169 -5 0 -11 -6 -14 -14 -3 -8 0 -11 6 -7 6 3 14 1 17 -5 4
-5 13 -8 21 -5 8 3 14 1 14 -3 0 -5 3 -17 7 -26 5 -14 2 -16 -15 -10 -35 10
-26 -14 11 -31 31 -14 31 -15 4 -11 -15 2 -30 0 -33 -4 -3 -5 3 -9 13 -9 15 0
16 -2 3 -10 -13 -9 -13 -11 0 -19 8 -6 12 -13 8 -16 -4 -4 8 -20 25 -36 l32
-29 -22 -18 c-65 -51 -68 -53 -50 -48 20 6 49 -3 42 -14 -3 -4 3 -11 12 -14
19 -8 33 10 26 33 -3 11 -1 11 7 -2 6 -10 9 -25 6 -33 -3 -8 1 -17 9 -20 21
-8 19 -25 -2 -18 -17 5 -17 5 0 -9 9 -8 17 -27 17 -43 0 -41 11 -78 19 -65 4
6 7 -7 6 -29 -1 -42 -15 -69 -15 -29 -1 21 -2 22 -11 6 -5 -9 -8 -21 -5 -26 7
-12 56 -11 56 1 0 5 5 6 11 3 7 -5 8 5 4 29 -5 22 -3 36 3 36 6 0 8 -8 6 -17
-3 -10 2 -27 10 -38 12 -17 17 -18 28 -6 7 8 8 11 2 8 -7 -4 -15 1 -18 10 -4
10 -4 14 0 10 4 -4 13 -2 21 4 10 9 13 8 13 -5 0 -9 7 -16 15 -16 8 0 15 -4
15 -10 0 -5 7 -7 15 -4 8 4 15 10 15 15 0 4 -7 6 -15 3 -8 -4 -15 -1 -15 6 0
6 -5 8 -12 4 -8 -5 -9 -2 -5 10 5 13 2 17 -15 14 -12 -2 -23 3 -26 11 -3 10 0
12 11 8 18 -7 29 24 15 44 -8 11 -9 10 -4 -3 3 -10 0 -18 -5 -18 -7 0 -9 9 -6
22 3 12 2 30 -4 40 -6 12 -6 24 0 37 9 16 8 18 -11 13 -19 -5 -20 -2 -14 24 9
36 46 78 46 52 0 -9 -8 -19 -17 -21 -17 -4 -17 -5 0 -6 16 -1 20 -11 20 -53 0
-10 3 -15 8 -13 4 3 10 1 14 -5 3 -5 -1 -10 -9 -10 -29 0 -26 -19 9 -55 20
-19 33 -40 29 -46 -4 -8 -9 -7 -15 2 -6 9 -9 10 -9 2 0 -19 12 -43 22 -43 5 0
6 5 2 12 -5 7 -3 8 5 4 7 -5 10 -10 7 -13 -7 -7 22 -63 32 -63 4 0 8 18 10 40
2 30 -1 40 -13 40 -8 0 -15 4 -15 10 0 5 6 7 13 5 7 -3 13 4 13 20 2 26 -11
34 -19 13 -3 -8 -6 -6 -6 5 -1 9 4 17 10 17 5 0 7 5 3 12 -5 8 3 9 31 5 20 -3
40 -8 42 -11 8 -7 -35 -45 -43 -38 -4 4 -4 1 1 -7 7 -12 10 -11 20 3 12 15 13
15 19 0 3 -9 3 -21 -1 -27 -4 -7 0 -8 11 -4 10 4 22 7 27 7 5 0 9 6 9 14 0 8
9 18 20 21 11 3 20 11 20 16 0 6 -5 7 -10 4 -6 -4 -18 -1 -27 7 -15 11 -16 11
-10 -4 4 -12 2 -18 -7 -18 -12 0 -53 105 -48 124 2 4 -3 14 -9 22 -9 11 -8 14
6 14 9 0 15 6 12 13 -2 6 -9 11 -15 10 -6 -2 -9 4 -5 13 5 13 9 12 27 -5 12
-12 28 -21 35 -21 7 0 9 -5 6 -11 -4 -6 -13 -8 -21 -5 -8 3 -14 1 -14 -4 0 -6
5 -10 11 -10 8 0 8 -4 -1 -15 -16 -19 -3 -40 16 -24 13 10 18 6 15 -13 0 -5 4
-8 9 -8 13 0 13 17 0 25 -5 3 -10 11 -10 17 0 7 6 6 15 -2 21 -18 43 3 71 68
13 28 26 52 29 52 3 0 1 -10 -6 -21 -9 -17 -8 -20 3 -13 28 18 38 13 33 -17
-6 -30 9 -40 19 -13 7 18 -19 74 -35 74 -6 0 -8 4 -5 9 11 16 -36 20 -60 4
-26 -17 -29 -30 -14 -53 9 -13 11 -13 20 0 16 24 10 -2 -8 -39 -9 -19 -20 -33
-24 -32 -5 0 -15 1 -25 1 -13 0 -12 3 6 19 18 16 20 23 11 45 -5 14 -13 26
-16 26 -4 0 -4 -3 -1 -7 4 -3 2 -12 -4 -20 -14 -17 -52 -17 -46 0 2 6 13 11
23 10 10 -1 13 0 7 3 -7 3 -13 14 -13 24 0 10 -8 21 -17 24 -10 4 -14 4 -10 0
4 -4 2 -13 -5 -21 -9 -11 -7 -12 8 -7 10 4 16 4 13 0 -4 -4 -16 -8 -28 -11
-29 -5 -42 -15 -36 -26 3 -5 -1 -6 -10 -3 -13 5 -15 1 -10 -22 5 -24 4 -26 -5
-11 -6 10 -16 14 -23 10 -7 -4 -5 2 3 12 14 17 13 18 -3 12 -11 -4 -16 -3 -12
3 3 5 1 19 -5 30 -14 26 4 26 21 -1 13 -19 16 -20 44 -5 17 9 24 16 18 16 -7
0 -13 9 -13 20 0 20 -14 27 -23 13 -2 -5 -2 -1 1 7 3 8 5 24 5 35 1 11 7 26
14 33 15 16 17 42 3 42 -5 0 -10 7 -10 15 0 14 13 20 35 15 5 -1 6 2 2 7 -5 4
-12 8 -15 9 -23 3 -42 19 -42 35 0 10 -4 19 -8 19 -5 0 -7 -13 -4 -30 2 -16 7
-28 11 -26 3 2 6 -15 6 -39 0 -24 -4 -41 -9 -37 -5 3 -6 -9 -3 -29 5 -26 4
-30 -4 -16 -6 10 -8 31 -4 46 3 16 2 32 -4 35 -6 4 -7 14 -4 23 5 12 3 14 -8
8 -11 -6 -12 -5 -1 6 17 18 15 32 -3 25 -13 -5 -14 -2 -4 15 13 25 2 40 -14
19 -14 -17 -37 -24 -37 -11 0 5 7 15 16 22 14 12 73 128 74 147 1 17 103 117
121 118 15 1 7 -10 -28 -43 -27 -24 -47 -48 -46 -54 2 -5 -1 -9 -6 -9 -5 0
-11 -8 -15 -17 -3 -10 -9 -25 -12 -33 -4 -8 0 -6 8 4 10 13 17 15 22 8 9 -15
26 -16 26 -1 0 5 -4 7 -10 4 -31 -19 17 61 60 98 16 15 30 31 30 35 0 4 16 14
35 21 19 7 35 17 35 22 0 14 -48 11 -81 -7 -17 -8 -33 -13 -36 -10 -3 3 6 10
20 15 32 12 41 27 22 35 -9 3 -15 0 -15 -9 0 -8 -5 -15 -11 -15 -6 0 -9 7 -5
15 3 8 0 15 -5 15 -6 0 -9 -9 -6 -20 3 -11 1 -20 -5 -20 -6 0 -8 -7 -5 -15 4
-9 -5 -18 -28 -27 -19 -6 -35 -16 -35 -20 0 -4 -12 -3 -27 3 -38 14 -53 5 -53
-35 0 -19 -4 -36 -8 -38 -5 -1 -12 -16 -16 -33 -4 -19 -3 -25 2 -17 8 11 10
11 15 -1 3 -8 -1 -24 -9 -35 -8 -11 -11 -27 -8 -36 3 -9 1 -16 -5 -16 -6 0
-11 6 -11 13 0 9 -2 9 -8 0 -10 -16 -2 -104 9 -97 5 3 6 -1 3 -9 -3 -8 5 -18
18 -25 15 -7 18 -11 7 -11 -8 -1 -20 4 -26 10 -18 18 -35 0 -28 -28 4 -18 1
-29 -12 -39 -26 -19 -33 -17 -33 11 0 14 6 25 13 25 7 1 5 6 -5 14 -10 7 -18
19 -18 25 0 7 -5 9 -11 5 -7 -4 -7 2 1 17 7 13 9 21 5 17 -5 -5 -14 1 -22 12
-8 11 -21 20 -29 20 -8 0 -14 7 -14 15 0 8 -4 15 -10 15 -5 0 -10 5 -10 11 0
5 5 7 10 4 5 -3 10 -2 10 3 0 6 -7 13 -16 16 -13 5 -14 9 -4 21 10 12 9 15 -9
15 -24 0 -27 10 -9 28 17 17 41 15 35 -2 -4 -10 -1 -13 8 -10 9 4 17 -5 24
-28 5 -18 10 -25 10 -15 1 9 8 17 16 17 8 0 15 5 15 11 0 5 -5 7 -12 3 -7 -4
-8 -3 -4 4 4 6 13 9 21 5 12 -4 21 9 13 20 -7 8 40 67 54 67 10 0 18 5 18 11
0 6 -7 9 -15 5 -11 -4 -15 1 -15 19 0 27 16 42 23 23 3 -7 6 -3 6 9 1 12 7 24
14 26 9 4 8 8 -3 16 -12 9 -10 11 13 11 15 0 27 5 27 11 0 6 -6 9 -12 7 -7 -3
-18 7 -26 20 -15 29 -9 40 13 22 10 -8 15 -9 15 -2 0 6 7 9 15 6 12 -5 13 -10
4 -20 -17 -20 9 -18 32 2 10 9 33 18 50 20 40 5 51 14 18 14 -13 0 -31 5 -39
11 -11 8 -8 9 15 5 37 -7 54 3 74 45 9 18 22 34 28 37 9 2 9 -4 -2 -24 -18
-36 -14 -39 24 -20 39 21 47 20 30 -1 -13 -16 -12 -17 4 -4 9 8 15 16 12 19
-2 3 17 15 43 28 26 13 41 24 34 24 -7 0 -22 -4 -32 -10 -13 -7 -19 -6 -24 5
-3 9 0 15 9 15 8 0 15 4 15 10 0 5 6 7 13 4 14 -5 107 43 107 55 0 4 -5 12
-12 19 -9 9 -8 12 5 12 9 0 17 5 17 10 0 6 -4 10 -10 10 -5 0 -10 5 -10 10 0
18 22 10 27 -10 3 -11 10 -20 15 -20 6 0 8 8 6 18 -3 11 5 24 21 36 14 11 20
13 14 6 -22 -23 -15 -28 25 -19 20 6 47 11 59 13 12 2 38 13 58 25 20 12 41
18 47 15 7 -5 8 -2 4 5 -5 8 -3 12 5 10 29 -3 39 2 39 19 0 14 2 15 10 2 8
-12 10 -12 16 3 3 9 14 17 23 17 16 1 62 30 46 30 -4 0 0 9 10 20 10 11 23 20
29 20 6 0 5 -5 -2 -12 -18 -18 -15 -33 3 -18 9 7 13 20 10 28 -9 24 6 34 22
15 8 -10 12 -12 8 -5 -3 6 -2 12 4 12 6 0 8 7 5 15 -4 8 -1 15 5 15 6 0 11 -4
11 -10 0 -5 5 -10 12 -10 6 0 4 7 -5 18 -20 21 -22 37 -5 26 8 -5 9 -2 4 11
-5 15 -4 16 9 5 11 -10 13 -15 4 -20 -7 -5 -7 -10 -1 -14 5 -3 15 0 21 8 9 10
7 16 -4 26 -9 8 -21 23 -27 34 -7 14 1 10 22 -11 38 -38 46 -40 53 -13 3 13 0
20 -8 20 -8 0 -17 4 -20 10 -4 6 6 8 25 6 20 -2 34 2 40 13 5 9 10 11 10 5 0
-5 -5 -15 -11 -21 -7 -7 -3 -17 17 -32 15 -11 23 -21 19 -21 -5 0 -17 7 -27
17 -21 18 -28 15 -31 -16 -1 -11 -4 -21 -7 -21 -3 0 -14 -16 -24 -35 -11 -19
-22 -35 -25 -35 -3 0 -6 -14 -7 -31 -1 -20 2 -26 7 -17 5 7 9 21 9 31 0 9 5
17 11 17 7 0 9 -10 5 -24 -5 -22 -3 -24 21 -20 21 3 24 2 13 -6 -8 -5 -22 -10
-30 -10 -9 0 -16 -9 -16 -20 0 -13 5 -19 14 -15 7 3 16 5 18 5 3 0 3 4 -1 9
-3 6 4 9 15 8 23 -1 25 -8 8 -25 -9 -9 -8 -12 6 -12 9 0 15 -4 11 -9 -3 -5 0
-13 6 -17 8 -5 10 1 7 20 -7 36 0 33 18 -9 8 -19 20 -35 27 -35 8 0 27 -13 43
-29 15 -16 35 -27 44 -25 8 2 -4 -5 -27 -16 -24 -12 -43 -25 -43 -31 0 -5 -10
-14 -22 -19 -13 -5 -16 -9 -8 -9 8 -1 28 6 44 14 16 9 31 14 32 12 8 -8 -33
-77 -41 -70 -5 4 -4 0 3 -9 12 -15 10 -16 -22 -13 -20 2 -36 -1 -36 -6 0 -5 7
-9 15 -9 13 0 14 -4 4 -22 -7 -13 -16 -36 -20 -53 -7 -29 -7 -29 -8 8 -1 44
-24 48 -29 6 -3 -26 39 -79 63 -79 7 0 15 -7 18 -15 5 -11 -1 -10 -26 4 -39
21 -77 75 -77 108 0 28 -17 22 -30 -11 -5 -13 -3 -27 4 -36 9 -13 9 -13 -5 -3
-12 10 -18 10 -28 0 -8 -7 -7 1 3 23 l17 35 -20 -22 c-10 -13 -24 -23 -30 -23
-6 0 -11 -5 -11 -11 0 -5 4 -8 8 -5 17 10 5 -35 -15 -58 -29 -33 -46 -66 -34
-66 5 0 12 6 14 13 4 9 6 9 6 0 1 -15 31 -18 31 -4 0 5 30 14 68 20 37 7 75
14 85 16 9 2 15 0 12 -5 -3 -4 -35 -13 -72 -20 -37 -6 -73 -16 -81 -22 -7 -6
-27 -12 -45 -14 -45 -3 -89 -22 -82 -34 3 -5 -2 -10 -13 -10 -22 0 -44 -42
-36 -67 5 -14 4 -15 -4 -4 -7 10 -15 6 -36 -21 -30 -40 -34 -56 -8 -37 9 7 14
9 9 4 -4 -4 2 -19 14 -31 16 -17 18 -24 7 -30 -7 -4 -10 -4 -6 1 4 4 0 14 -10
21 -14 10 -18 10 -24 -4 -5 -14 -7 -12 -7 6 -1 27 -12 28 -29 2 -7 -12 -16
-18 -21 -15 -12 7 -34 -22 -26 -35 3 -5 1 -10 -5 -10 -7 0 -10 -6 -7 -14 3 -8
-2 -16 -15 -19 -17 -5 -19 -11 -13 -37 4 -19 2 -36 -5 -45 -10 -12 -9 -15 4
-15 9 0 18 11 21 25 3 14 8 37 12 53 3 15 7 29 7 32 1 3 5 11 9 18 5 6 6 16 2
21 -3 5 -1 12 4 15 5 3 11 -4 15 -17 8 -31 7 -39 -3 -33 -4 3 -1 -15 8 -39 17
-47 31 -59 31 -26 0 11 6 26 13 33 7 7 29 34 49 60 20 26 38 45 41 42 2 -2 10
2 17 11 10 12 10 15 -1 15 -10 1 -9 4 4 14 10 8 15 20 11 29 -3 8 -1 18 5 22
6 3 11 15 11 26 0 11 7 31 16 44 9 14 12 25 8 25 -11 0 18 20 29 20 4 0 -4
-17 -18 -37 -27 -41 -32 -58 -12 -47 9 6 9 4 1 -7 -6 -8 -15 -32 -19 -54 -7
-41 -29 -75 -49 -76 -6 0 -29 -24 -51 -52 -33 -44 -40 -60 -40 -102 -1 -27 -6
-59 -13 -70 -10 -17 -11 -13 -8 25 2 25 1 33 -1 17 -2 -16 -9 -25 -15 -21 -7
4 -8 -2 -3 -17 6 -19 5 -22 -6 -12 -9 9 -10 18 -2 35 6 13 7 32 2 43 -6 17 -8
15 -9 -10 -2 -29 -2 -29 -16 10 -7 22 -12 30 -10 19 2 -15 -5 -26 -25 -38 -25
-14 -28 -22 -24 -55 2 -20 0 -43 -4 -50 -5 -7 -5 -29 -2 -49 4 -20 4 -53 0
-72 -5 -27 -7 -19 -8 33 -1 47 -4 66 -12 61 -8 -5 -8 -1 0 14 12 23 13 143 1
163 -7 10 -13 5 -27 -19 -10 -18 -24 -32 -30 -32 -16 0 -17 -17 -2 -22 7 -2 5
-9 -5 -17 -14 -12 -16 -12 -10 4 5 13 3 16 -7 13 -8 -3 -14 -9 -14 -14 -1 -10
-82 -94 -92 -94 -3 0 0 7 7 15 14 16 3 20 -19 6 -9 -6 -10 -11 -2 -15 6 -4 11
-17 11 -28 0 -12 -3 -18 -6 -15 -8 8 -64 -68 -64 -86 0 -7 -5 -18 -12 -25 -9
-9 -9 -15 0 -24 16 -16 15 -25 -3 -25 -8 0 -19 13 -24 29 -6 16 -15 27 -20 24
-11 -7 -26 32 -17 41 3 4 6 -2 6 -12 0 -17 2 -17 20 3 21 23 27 37 10 27 -6
-4 -17 -2 -25 5 -11 9 -16 7 -24 -8 -6 -11 -7 -23 -3 -27 4 -5 2 -5 -5 -2 -16
10 -44 -20 -37 -38 4 -8 10 -15 16 -15 5 0 6 5 3 10 -3 6 -1 10 5 10 6 0 8 5
4 12 -4 7 -3 8 4 4 6 -4 8 -14 5 -23 -5 -11 -3 -14 6 -8 10 6 11 3 1 -15 -15
-28 -5 -38 12 -11 7 12 17 21 21 21 5 0 -2 -13 -16 -30 -15 -17 -23 -37 -20
-48 5 -22 -28 -55 -34 -34 -8 20 -39 14 -40 -9 -1 -14 3 -19 13 -15 8 3 14 1
14 -5 0 -5 12 -2 28 8 24 16 26 16 14 1 -8 -10 -11 -21 -8 -27 3 -5 2 -21 -3
-34 -15 -39 13 -42 70 -7 55 34 68 27 14 -8 -19 -12 -35 -28 -34 -35 1 -21 27
-83 28 -67 1 9 22 36 48 60 26 25 41 37 34 28 -18 -24 -6 -23 28 3 43 31 57
15 23 -27 -15 -19 -31 -34 -36 -34 -5 0 -2 7 5 16 12 15 10 16 -21 9 -64 -14
-82 -55 -71 -157 5 -40 5 -78 0 -84 -10 -12 55 -12 82 0 10 4 23 1 33 -9 15
-15 16 -15 16 4 0 19 -11 26 -34 22 -5 -1 -3 6 4 16 22 28 24 29 17 10 -5 -13
-3 -17 5 -15 7 3 18 33 24 67 8 42 19 70 34 85 l23 21 -21 -30 c-15 -22 -22
-54 -27 -115 -5 -64 -3 -81 5 -67 10 15 40 25 40 12 0 -14 -117 -125 -128
-120 -18 7 -27 -22 -12 -40 7 -8 30 -18 52 -21 21 -4 41 -11 44 -16 6 -9 -31
-2 -74 14 -13 4 -28 5 -34 2 -7 -4 -8 -2 -4 4 4 7 1 12 -8 12 -18 0 -21 -11
-7 -25 14 -15 24 -75 13 -75 -5 0 -12 7 -16 15 -6 16 -36 21 -36 6 0 -13 26
-32 33 -24 4 3 7 1 7 -6 0 -8 7 -11 15 -7 17 6 21 -9 5 -19 -6 -4 -8 -10 -5
-15 3 -4 -5 -6 -17 -2 -12 3 -17 7 -10 10 6 2 12 8 12 13 0 6 -4 8 -9 5 -9 -6
-35 20 -44 44 -3 8 -4 -5 -2 -30 4 -41 3 -43 -10 -26 -11 15 -15 16 -15 5 0
-8 5 -20 12 -27 7 -7 8 -12 4 -12 -5 0 -2 -8 5 -17 10 -11 10 -14 2 -9 -18 10
-16 -5 2 -31 12 -18 13 -26 4 -41 -9 -15 -8 -32 9 -83 13 -40 17 -68 11 -74
-5 -5 -9 -24 -9 -42 0 -18 -4 -33 -10 -33 -5 0 -10 -4 -10 -9 0 -22 59 6 71
33 7 16 8 11 4 -19 -2 -22 -5 -53 -5 -70 -1 -26 -2 -28 -11 -12 -6 10 -8 30
-4 45 11 46 -13 11 -29 -41 -14 -47 -14 -48 7 -42 21 6 21 5 4 -8 -10 -8 -19
-33 -22 -57 -2 -23 -9 -47 -15 -55 -8 -10 -7 -14 2 -18 9 -4 8 -6 -3 -6 -9 -1
-28 -26 -45 -60 -16 -33 -32 -60 -35 -60 -3 -1 -5 23 -4 52 1 28 -3 68 -9 87
-7 19 -12 40 -12 45 0 6 -3 26 -7 45 -8 38 -14 89 -16 133 -1 16 -7 27 -15 27
-8 0 -34 20 -57 45 -47 50 -78 92 -61 81 8 -5 12 0 12 12 0 24 16 38 53 48 27
6 28 5 16 -14 -10 -17 -10 -23 1 -36 11 -14 10 -20 -8 -39 -20 -21 -21 -25 -6
-46 9 -12 22 -20 30 -17 8 3 13 0 11 -6 -1 -6 4 -13 12 -16 11 -4 13 3 8 34
-4 22 -7 53 -7 71 0 26 -3 31 -20 28 -11 -2 -20 0 -20 6 0 5 7 9 15 9 11 0 14
7 11 23 -3 12 -8 58 -12 102 -3 44 -11 83 -18 88 -7 5 -2 14 17 28 24 19 40
48 18 35 -5 -4 -12 0 -14 6 -3 8 -6 6 -6 -5 -1 -10 -6 -15 -11 -12 -6 3 -10
-1 -10 -10 0 -25 -30 -52 -40 -36 -5 10 -9 9 -13 -2 -3 -8 0 -20 6 -26 8 -8 8
-14 -2 -23 -10 -11 -12 -10 -9 1 2 7 -3 16 -10 18 -7 3 -12 1 -11 -4 1 -4 1
-15 0 -23 -1 -13 -2 -13 -11 0 -8 12 -10 9 -10 -13 0 -24 2 -26 19 -17 11 5
26 7 34 4 10 -3 18 2 22 15 6 19 35 31 35 15 0 -9 -53 -54 -63 -54 -5 0 -6 -4
-3 -9 7 -11 -27 -9 -35 2 -3 5 -9 -47 -12 -115 -3 -68 -12 -168 -21 -223 -8
-55 -17 -118 -20 -140 -3 -22 -10 -62 -17 -90 -6 -27 -12 -60 -13 -72 0 -12
-4 -19 -8 -15 -4 4 -1 46 7 92 19 109 19 116 -1 96 -8 -9 -12 -20 -9 -26 3 -5
2 -10 -4 -10 -5 0 -12 -8 -14 -17 -3 -10 -6 2 -8 27 -1 25 -3 53 -3 62 -1 10
-10 24 -21 33 -16 12 -17 14 -2 9 28 -10 19 3 -13 20 -33 16 -36 12 -15 -24
16 -29 18 -40 7 -40 -5 0 -13 12 -20 28 -11 25 -11 25 -6 2 3 -14 6 -33 7 -42
1 -10 5 -18 9 -18 4 0 8 -4 8 -10 0 -5 -10 -10 -22 -10 -21 0 -21 0 2 -20 13
-11 20 -20 17 -20 -4 0 1 -9 10 -20 11 -12 20 -16 24 -9 3 6 8 2 12 -10 6 -23
-11 -111 -21 -111 -4 0 -7 -27 -7 -60 0 -33 3 -60 8 -60 19 0 4 -20 -15 -21
-22 0 -22 -1 -3 -9 19 -8 19 -9 1 -9 -19 -1 -19 -2 -2 -14 11 -8 16 -20 13
-28 -4 -10 -6 -9 -6 4 -1 9 -6 17 -12 17 -5 0 -7 -4 -4 -10 4 -6 -1 -7 -11 -3
-14 5 -16 3 -11 -11 4 -10 7 -21 7 -24 0 -4 4 -1 9 7 7 10 9 7 8 -12 -1 -15
-5 -27 -10 -27 -4 0 0 -17 8 -37 15 -36 15 -36 -5 -18 -11 10 -20 31 -20 47 0
15 -4 28 -9 28 -17 0 -4 -80 15 -95 18 -14 18 -16 -8 -36 -21 -16 -28 -29 -28
-55 0 -20 -4 -44 -10 -54 -13 -24 11 -33 63 -21 21 5 37 5 37 0 0 -8 -23 -14
-44 -10 -13 3 -46 -30 -46 -45 0 -7 6 -15 13 -18 6 -3 1 -3 -12 0 -17 4 -22 2
-18 -7 2 -8 10 -13 16 -12 14 4 14 -14 0 -22 -6 -4 -8 -14 -5 -22 4 -9 1 -22
-5 -30 -9 -10 -9 -17 -1 -25 9 -9 12 -8 12 6 0 10 4 14 12 10 6 -4 8 -3 4 4
-3 6 -2 13 4 17 5 3 11 0 11 -7 1 -7 2 -20 3 -28 0 -8 -2 -17 -6 -20 -12 -9
-39 -80 -30 -80 4 0 14 6 22 12 8 7 7 4 -3 -8 -25 -30 -21 -37 10 -17 l28 17
-23 -25 c-29 -33 -28 -42 12 -116 19 -35 30 -60 25 -58 -4 3 -20 28 -35 55
-26 47 -51 70 -37 33 4 -11 3 -14 -5 -9 -7 4 -12 1 -12 -8 0 -9 3 -16 8 -16
15 0 32 -52 21 -69 -10 -15 -10 -15 -5 0 2 10 -5 26 -18 38 l-23 22 -19 -43
c-10 -24 -20 -47 -23 -53 -2 -5 2 -3 11 5 8 8 18 28 22 43 8 34 24 35 31 2 3
-14 7 -36 10 -49 3 -17 0 -28 -12 -34 -14 -9 -13 -13 10 -36 25 -25 39 -74 17
-61 -5 3 -10 -2 -10 -11 0 -14 -3 -15 -12 -6 -9 9 -8 15 8 26 10 8 16 17 12
21 -10 10 -58 13 -58 4 0 -5 4 -9 9 -9 5 0 11 -14 13 -30 3 -20 0 -30 -9 -30
-21 0 -16 -10 29 -52 44 -42 54 -41 61 9 3 17 8 36 11 41 7 11 -19 24 -28 15
-3 -4 -6 -18 -7 -32 0 -14 -3 -21 -5 -15 -3 7 -14 10 -24 7 -11 -3 -20 0 -20
6 0 6 8 11 19 11 27 0 44 49 38 109 -7 71 10 54 18 -19 6 -47 10 -58 20 -50
10 8 12 1 8 -32 -2 -24 -4 -51 -4 -60 0 -10 -7 -18 -15 -18 -8 0 -14 -4 -14
-10 0 -5 -6 -10 -14 -10 -8 0 -17 -4 -20 -9 -8 -13 37 0 46 13 5 8 8 7 8 -1 0
-7 9 -13 20 -13 11 0 20 -4 20 -10 0 -5 7 -10 15 -10 8 0 15 5 15 12 0 6 8 2
18 -8 12 -13 29 -19 57 -18 22 1 51 -4 64 -10 19 -8 25 -8 29 2 6 20 22 14 56
-23 19 -19 38 -35 45 -35 6 0 11 -6 11 -13 0 -8 -7 -14 -15 -14 -8 0 -15 4
-15 8 0 4 -7 9 -15 13 -13 5 -13 3 -1 -17 14 -20 16 -26 16 -43 0 -4 7 -1 15
6 12 10 14 8 10 -8 -5 -28 12 -39 65 -40 37 -1 41 1 22 9 -14 5 -21 14 -18 21
3 7 9 21 12 30 3 9 18 19 33 21 22 3 21 4 -8 6 -29 1 -33 4 -28 22 4 16 2 19
-10 15 -13 -5 -14 -4 -4 8 10 12 8 17 -10 26 -19 11 -21 10 -17 -7 4 -15 -1
-19 -24 -20 -18 0 -28 4 -28 14 0 8 4 12 9 9 5 -3 11 1 15 9 3 8 1 15 -5 15
-6 0 -7 5 -4 10 3 6 1 10 -4 10 -6 0 -11 -5 -11 -11 0 -5 -4 -7 -10 -4 -5 3
-10 11 -10 16 0 6 4 8 9 5 5 -3 12 1 15 10 4 9 13 14 22 10 9 -4 12 -2 8 5 -3
6 -17 9 -29 6 -20 -3 -22 -1 -12 14 6 10 20 20 30 23 10 2 16 9 12 15 -3 6 -1
11 5 11 7 0 5 7 -4 16 -9 8 -16 18 -16 22 0 3 5 1 12 -6 7 -7 16 -12 21 -12 5
0 2 7 -7 15 -10 11 -13 26 -9 46 4 21 1 34 -8 40 -10 6 -11 11 -3 17 14 9 14
45 0 54 -7 5 -3 8 9 8 19 1 19 1 -2 19 -17 14 -19 21 -10 31 10 10 8 12 -9 8
-17 -4 -21 -1 -21 23 0 15 4 26 9 23 4 -3 8 0 8 5 0 6 -4 11 -10 11 -5 0 -10
7 -10 15 0 8 -5 15 -11 15 -5 0 -7 -4 -4 -10 3 -5 2 -10 -3 -10 -19 0 -20 13
-4 39 16 25 16 25 -1 12 -10 -8 -20 -11 -24 -7 -3 3 -1 6 5 6 7 0 12 10 13 23
0 12 3 16 6 9 4 -10 12 -8 31 10 19 16 22 17 12 4 -14 -18 -13 -19 3 -13 24 9
22 -10 -3 -23 -29 -16 -25 -31 8 -24 21 4 24 3 12 -5 -8 -6 -10 -11 -4 -11 6
0 19 10 27 22 15 23 15 23 10 2 -2 -12 0 -25 6 -28 6 -4 11 -16 11 -26 0 -14
-5 -18 -17 -13 -13 4 -11 0 5 -15 13 -11 21 -25 18 -31 -8 -13 4 -42 15 -35 5
3 7 10 4 15 -4 5 -1 9 4 9 18 0 12 -28 -7 -34 -15 -5 -18 -16 -16 -61 1 -42
-2 -55 -14 -57 -13 -3 -13 -6 4 -22 12 -13 15 -21 7 -23 -9 -3 -9 -11 -1 -31
6 -15 10 -37 10 -49 -1 -12 8 -29 20 -37 16 -12 21 -26 23 -71 1 -36 7 -60 16
-66 21 -13 29 -11 29 7 0 8 -4 13 -10 9 -5 -3 -8 10 -6 31 3 30 8 38 24 39 12
1 19 -2 16 -6 -2 -4 5 -7 16 -6 19 1 30 17 12 17 -5 0 -17 7 -28 15 -17 13
-15 14 16 1 19 -7 41 -11 48 -9 7 3 11 -1 10 -8 -2 -9 12 -13 47 -15 27 -1 51
-6 52 -11 4 -12 52 -5 71 10 8 6 12 6 12 -2 0 -7 4 -10 9 -7 10 7 11 106 1
106 -5 0 -11 -6 -14 -12 -3 -7 -3 -3 0 10 8 31 -15 89 -28 70 -6 -8 -8 -1 -6
22 3 31 1 35 -19 32 -27 -4 -31 19 -8 42 8 8 15 20 15 27 0 19 -41 -39 -43
-60 0 -11 -4 -18 -8 -15 -4 2 -12 -10 -18 -28 -13 -37 -13 -41 -3 -35 4 3 8
-9 9 -26 1 -26 0 -28 -7 -12 -5 11 -9 16 -10 10 -1 -5 -6 1 -11 14 -6 16 -6
28 1 35 12 12 13 26 1 26 -5 0 -12 -12 -15 -26 -4 -15 -10 -23 -14 -20 -3 4
-12 -10 -19 -31 -12 -36 -12 -36 -8 -5 3 24 1 32 -10 32 -8 0 -15 -6 -16 -12
0 -7 -5 -2 -11 12 l-10 25 -9 -22 c-8 -23 -29 -32 -29 -13 0 6 6 10 13 10 8 0
9 2 1 8 -7 4 -14 16 -17 27 -4 16 -5 14 -6 -7 -1 -28 -16 -45 -25 -29 -3 5 1
22 9 37 8 16 15 47 14 69 0 34 -2 37 -9 17 -5 -12 -7 -29 -4 -37 4 -8 1 -15
-6 -15 -6 0 -8 5 -5 10 4 6 -5 10 -20 10 -19 0 -26 5 -23 17 4 21 25 28 31 11
2 -7 3 0 1 15 -2 16 0 25 6 22 9 -6 12 3 26 80 8 46 8 43 -1 73 -9 29 13 29
24 0 l8 -22 12 23 c11 19 11 23 0 19 -8 -3 -20 2 -28 10 -12 12 -12 15 0 23 8
5 17 9 21 9 10 0 42 89 35 97 -4 3 -10 -3 -13 -13 -26 -71 -35 -87 -46 -76 -6
6 -13 33 -16 61 -3 35 -8 48 -17 45 -7 -3 -16 -1 -20 5 -3 6 1 11 9 11 9 0 20
16 27 42 6 24 15 54 21 68 9 24 9 24 -10 7 -17 -16 -20 -16 -32 -2 -10 12 -16
13 -27 4 -11 -9 -12 -9 -7 4 3 9 -4 30 -16 47 -21 29 -23 30 -37 13 -13 -17
-14 -17 -4 2 5 11 19 29 31 40 l23 20 -13 -22 c-12 -18 -12 -24 1 -39 13 -16
14 -15 20 12 6 26 7 26 8 -11 1 -30 4 -36 13 -27 18 18 33 15 18 -3 -10 -12
-10 -19 -2 -27 14 -14 27 14 19 37 -4 8 -2 17 3 20 6 4 10 21 10 39 0 17 6 38
13 45 10 11 10 13 0 7 -16 -9 -17 8 -2 32 11 18 13 18 35 -3 25 -23 34 -46 10
-26 -10 9 -17 6 -29 -12 -13 -20 -13 -26 -1 -42 13 -17 19 -11 16 16 -1 3 10
4 23 1 27 -5 32 7 38 88 3 25 4 15 3 -21 -1 -56 1 -66 14 -61 12 5 12 2 -2
-11 -10 -10 -15 -25 -11 -35 3 -11 0 -9 -11 5 -23 31 -35 29 -31 -4 2 -16 4
-31 4 -35 1 -4 13 -14 27 -21 17 -9 23 -17 15 -21 -6 -4 -11 -2 -11 4 0 7 -6
10 -12 7 -7 -2 -18 5 -25 17 -12 21 -12 21 -13 -4 -1 -14 -4 -19 -7 -12 -2 6
-9 10 -14 6 -19 -12 -7 -23 29 -26 23 -2 36 -8 35 -15 -2 -7 2 -13 7 -13 6 0
1 -13 -11 -29 -12 -16 -19 -35 -17 -42 2 -6 19 11 37 39 18 29 29 56 25 63 -5
8 -3 9 6 4 10 -6 12 -4 7 9 -7 18 15 50 27 39 3 -4 6 0 7 8 1 8 7 -4 14 -26 8
-22 14 -33 14 -24 1 9 7 19 15 22 7 3 16 15 19 26 3 12 1 19 -4 15 -5 -3 -9
-12 -9 -20 0 -8 -4 -14 -10 -14 -13 0 -13 27 0 35 5 3 10 9 10 13 0 12 -58 43
-62 33 -1 -5 -8 -4 -14 3 -8 9 -5 16 12 29 21 16 22 15 17 -2 -3 -10 2 -21 10
-24 10 -4 17 3 20 21 4 15 24 47 47 71 22 24 40 50 40 57 0 8 6 14 14 14 8 0
17 6 19 13 4 7 6 6 6 -4 1 -23 -22 -63 -38 -67 -21 -4 -64 -49 -66 -69 0 -10
-5 -24 -9 -32 -9 -14 11 -34 25 -25 4 2 15 28 24 57 26 78 47 94 26 19 -6 -20
-6 -30 0 -27 5 4 9 13 9 22 0 20 93 185 133 236 23 29 27 41 18 47 -9 5 -10 9
-2 14 6 4 11 2 11 -5 0 -33 23 19 60 133 16 50 16 62 4 95 -14 40 -18 70 -8
60 3 -3 12 -23 19 -44 13 -38 14 -38 24 -13 7 19 10 20 10 7 1 -11 6 -16 14
-12 6 4 2 -2 -9 -12 -12 -10 -31 -47 -43 -82 -30 -93 -26 -97 13 -13 19 41 39
79 45 85 6 6 11 14 11 19 0 13 108 235 117 241 5 3 -6 -25 -24 -61 -37 -75
-42 -99 -13 -62 10 14 22 22 25 18 4 -3 -7 -21 -24 -40 -20 -21 -29 -26 -24
-14 4 14 3 17 -6 12 -7 -5 -10 -14 -7 -22 3 -8 -10 -39 -29 -68 -19 -30 -46
-80 -60 -113 l-25 -58 31 33 c19 21 28 40 25 50 -5 15 -5 15 7 0 11 -14 16
-15 27 -5 10 10 10 8 0 -12 -10 -19 -14 -21 -21 -10 -7 12 -9 12 -9 0 0 -8 -7
-22 -16 -32 -9 -10 -13 -23 -9 -28 12 -21 40 -11 62 22 26 38 40 73 27 65 -5
-3 -14 0 -21 7 -10 10 -9 16 3 26 12 10 13 9 8 -7 -5 -18 -5 -18 9 -2 8 10 16
15 19 13 3 -3 17 -1 32 4 39 15 32 4 -8 -13 -28 -12 -33 -19 -29 -36 5 -20 6
-20 32 -3 42 27 125 144 113 159 -4 4 -2 4 5 0 13 -7 48 49 45 74 -1 12 0 12
5 1 4 -11 10 -8 25 10 14 16 18 18 14 7 -3 -12 0 -18 10 -18 11 0 12 4 4 19
-14 28 -12 74 5 97 8 10 14 26 15 34 0 8 -11 -3 -25 -25 -13 -22 -25 -47 -25
-56 0 -9 -8 -23 -18 -33 -11 -9 -24 -34 -31 -56 -7 -23 -16 -38 -21 -35 -5 3
-14 -4 -20 -16 -7 -11 -14 -18 -17 -15 -3 3 -15 -6 -25 -20 -11 -14 -23 -23
-26 -19 -3 3 5 16 17 29 13 14 24 40 25 61 2 20 8 40 13 44 16 11 54 71 50 78
-2 5 7 19 20 32 30 32 29 15 -2 -31 -14 -21 -20 -35 -12 -33 14 6 34 35 47 71
7 17 7 23 0 19 -6 -3 -10 -2 -10 4 0 5 7 14 16 19 9 5 15 12 15 16 -1 3 6 21
15 39 10 17 19 45 21 61 2 17 7 32 11 35 5 3 11 16 15 29 4 19 2 22 -15 16
-19 -6 -19 -5 -3 20 16 24 34 39 20 16 -3 -5 -2 -10 3 -10 10 0 25 30 19 37
-8 7 -33 -9 -50 -33 -15 -20 -16 -28 -7 -39 14 -17 0 -21 -16 -5 -7 7 -18 0
-35 -23 -53 -75 -151 -168 -175 -167 -5 0 -1 5 9 11 9 6 14 15 11 21 -4 6 -3
8 4 4 13 -8 42 20 43 42 0 11 3 12 6 5 7 -18 123 110 123 136 0 6 5 11 11 11
6 0 9 7 5 15 -3 8 -1 15 3 15 10 0 41 84 41 112 0 10 -5 18 -11 18 -6 0 -8
-10 -5 -22 3 -13 3 -17 0 -11 -4 10 -11 10 -27 1 -21 -11 -21 -11 -2 -19 17
-6 15 -7 -7 -6 -16 1 -28 2 -28 3 0 6 61 63 70 66 14 4 0 48 -16 48 -7 0 -16
4 -19 10 -3 6 1 7 9 4 9 -3 16 -1 16 5 0 6 -11 11 -25 11 -19 0 -23 4 -18 17
4 11 8 12 11 5 8 -25 22 -11 22 23 0 19 -4 35 -9 35 -16 0 -18 34 -3 53 11 12
12 17 3 17 -7 0 -21 -10 -30 -22 -21 -25 -16 -62 6 -53 11 3 13 1 9 -10 -3 -8
0 -15 6 -15 6 0 9 -3 5 -6 -3 -3 -16 1 -29 10 -29 20 -42 20 -34 0 3 -8 2 -12
-4 -9 -18 11 -10 -80 11 -124 11 -24 18 -45 15 -49 -3 -3 -6 0 -6 6 0 18 -18
14 -24 -5 -2 -10 -4 -1 -3 19 1 20 -2 40 -6 44 -4 4 -8 19 -8 33 -1 14 -7 -10
-14 -54 -9 -58 -13 -69 -14 -41 l-1 40 -37 -61 c-48 -78 -82 -123 -52 -68 12
22 27 47 34 55 15 20 71 195 79 245 5 35 4 37 -5 15 -6 -14 -16 -34 -21 -45
-5 -12 -10 -28 -12 -37 -2 -19 -27 -50 -34 -43 -3 2 1 12 9 21 12 15 12 17 -1
12 -8 -2 -16 -14 -18 -26 -2 -11 -10 -26 -19 -34 -14 -11 -15 -10 -10 7 24 80
19 100 -7 29 -8 -21 -15 -32 -15 -24 0 8 6 34 14 58 9 24 13 48 10 53 -4 5 -2
9 4 9 20 0 70 187 56 211 -6 9 -10 8 -15 -7 -4 -10 -8 -22 -9 -27 0 -4 -10
-17 -21 -29 -11 -12 -18 -28 -16 -35 3 -7 1 -13 -4 -13 -6 0 -10 -12 -9 -27
l1 -28 7 25 c7 25 8 25 12 -6 7 -44 0 -59 -16 -37 -13 17 -15 15 -28 -16 -8
-19 -13 -42 -10 -50 3 -10 0 -9 -7 3 -9 13 -9 24 -1 42 16 35 -5 67 -39 59
-21 -4 -22 -4 -7 5 17 11 24 50 9 50 -5 0 -17 -17 -26 -38 -16 -36 -16 -64 0
-115 7 -21 7 -21 15 -2 7 19 8 19 8 -2 1 -35 -24 -27 -38 12 -14 39 -31 38
-31 -1 0 -14 4 -23 9 -20 5 4 7 -3 4 -14 -3 -11 0 -27 7 -35 10 -12 9 -15 -4
-15 -10 0 -16 9 -16 25 0 14 -4 25 -10 25 -10 0 -14 -21 -10 -50 1 -10 -3 -9
-13 5 -12 16 -13 23 -2 40 16 26 31 104 16 90 -5 -5 -12 -23 -15 -40 -2 -16
-5 -32 -5 -35 -1 -3 -5 1 -10 9 -5 8 -7 29 -4 48 8 45 -13 43 -21 -3 -5 -22
-3 -41 4 -49 6 -8 10 -24 7 -37 -4 -20 -4 -20 -6 5 -2 39 -17 33 -28 -10 -4
-20 -14 -38 -20 -40 -7 -3 -4 16 8 48 18 48 19 53 3 76 -11 18 -13 28 -5 36 8
8 11 5 11 -11 0 -33 17 -27 24 9 3 17 10 28 16 24 8 -5 16 47 11 78 0 4 6 7
14 7 9 0 15 9 14 23 0 12 -3 16 -6 10 -2 -7 -8 -13 -11 -13 -10 0 -8 103 3
119 6 11 4 13 -8 8 -20 -8 -12 22 11 41 9 6 11 12 6 12 -6 0 -16 -6 -23 -12
-11 -11 -13 -10 -8 5 4 11 3 16 -4 12 -5 -4 -8 -12 -7 -17 2 -6 -7 -22 -21
-36 -16 -16 -21 -27 -14 -29 7 -3 9 -11 6 -19 -3 -7 -8 -12 -13 -9 -4 2 -6 -7
-4 -20 1 -14 -2 -27 -7 -31 -5 -3 -9 -12 -9 -20 0 -9 5 -12 11 -8 7 4 10 1 7
-6 -9 -27 -28 -22 -29 7 0 24 -2 21 -15 -17 -8 -27 -12 -61 -8 -85 5 -37 4
-38 -8 -20 -16 22 -21 95 -7 95 5 0 9 4 9 10 0 5 -8 7 -17 4 -14 -4 -13 -1 4
13 26 21 66 111 59 130 -3 8 -1 11 4 8 6 -3 10 3 10 14 0 10 3 28 6 38 4 14 3
14 -8 -3 -22 -36 -56 -74 -64 -74 -4 0 2 10 13 23 11 12 29 37 39 55 10 18 24
30 31 28 7 -3 13 1 13 9 0 8 -5 15 -11 15 -5 0 -7 5 -3 12 5 7 2 9 -8 6 -10
-4 -14 0 -13 13 2 23 15 38 15 17 0 -9 8 -22 18 -29 9 -7 14 -9 10 -5 -4 5 -2
16 5 24 10 13 9 15 -5 9 -24 -9 -23 14 2 45 10 14 22 44 26 67 5 31 11 41 21
37 8 -3 11 -1 8 4 -3 6 -1 10 4 10 6 0 11 8 11 18 0 10 7 27 16 38 14 18 15
18 9 -6 l-6 -25 15 25 c18 29 20 44 6 35 -6 -3 -10 2 -10 12 0 26 -25 68 -38
66 -6 -2 -9 4 -6 12 3 8 -4 24 -15 36 -11 13 -19 25 -16 27 6 6 45 -38 45 -50
0 -5 4 -6 10 -3 5 3 7 0 4 -8 -3 -8 2 -20 11 -27 12 -10 15 -10 16 1 1 8 0 19
-1 24 -2 6 -3 21 -2 35 0 14 -2 19 -5 13 -2 -7 -9 -13 -15 -13 -6 0 -6 6 2 15
16 19 33 8 27 -17 -4 -16 -3 -17 9 -7 17 14 18 36 2 42 -10 4 -10 7 0 18 10
11 12 10 13 -6 0 -17 2 -16 10 5 7 17 7 26 0 28 -15 5 -14 29 1 38 8 5 9 2 5
-9 -3 -9 -2 -19 3 -22 4 -3 20 18 34 47 26 55 55 99 56 85 0 -5 -9 -21 -21
-35 -13 -17 -18 -34 -15 -49 4 -13 1 -25 -8 -30 -13 -7 -56 -76 -56 -89 0 -4
11 1 25 10 15 10 25 12 25 6 0 -20 -28 -40 -46 -33 -11 4 -15 3 -10 -5 3 -6 2
-13 -4 -17 -6 -4 -8 -10 -5 -15 3 -4 -2 -20 -10 -36 -15 -30 -12 -44 12 -44
10 0 14 6 10 20 -3 13 -1 18 6 13 7 -4 8 0 3 12 -9 24 19 54 45 48 10 -3 19
-10 19 -15 0 -5 -4 -7 -9 -4 -10 6 -24 -35 -15 -43 3 -3 10 2 15 12 6 9 15 14
21 11 7 -5 8 -2 3 6 -6 10 -4 12 8 7 11 -4 14 -2 10 9 -3 8 3 24 12 34 22 25
37 26 28 3 -6 -16 -5 -17 11 -3 11 8 14 16 7 18 -13 4 -15 32 -2 32 5 0 11 -5
13 -12 3 -9 6 -9 12 0 4 7 2 12 -4 12 -6 0 -8 5 -5 10 10 16 -7 12 -45 -11
-31 -19 -33 -19 -20 -3 18 22 40 37 59 40 16 3 31 23 31 42 0 6 5 12 11 12 7
0 8 -7 4 -17 -14 -36 -17 -48 -8 -37 4 6 19 15 32 19 21 6 23 5 17 -11 -5 -12
-4 -15 2 -9 15 16 26 59 13 51 -7 -4 -9 -1 -5 7 3 8 14 17 25 20 22 6 23 3 8
-25 -18 -34 -3 -31 21 4 l22 33 -7 -29 c-6 -27 -5 -28 11 -15 16 13 17 12 10
-6 -6 -16 -5 -17 5 -8 16 16 49 -1 50 -25 1 -28 17 18 18 52 1 25 3 27 17 15
13 -10 17 -10 25 2 7 11 9 10 10 -6 0 -19 1 -19 11 2 17 36 36 36 48 0 l10
-32 -5 34 c-3 19 -2 32 1 28 4 -4 13 -2 19 3 9 8 11 3 8 -17 -3 -20 -2 -24 5
-14 8 11 11 11 16 0 3 -8 4 -1 1 14 -4 22 -3 27 7 20 7 -4 16 -8 21 -9 4 -1 8
-2 10 -3 10 -9 47 -9 47 0 0 5 -4 8 -9 5 -5 -3 -11 1 -15 9 -7 20 13 19 36 -2
10 -9 18 -11 18 -5 0 6 -7 15 -15 20 -13 7 -8 16 26 50 24 23 45 39 48 37 3
-3 -5 -12 -17 -21 -27 -18 -25 -46 3 -56 19 -6 19 -6 -2 -7 -12 -1 -25 4 -28
9 -16 25 -22 6 -7 -21 14 -25 22 -29 45 -25 15 3 27 1 27 -4 0 -6 -4 -10 -9
-10 -4 0 -6 -12 -4 -27 4 -22 2 -25 -6 -13 -6 8 -11 10 -11 4 0 -6 -6 -11 -12
-11 -7 0 -22 -4 -33 -8 -16 -5 -17 -5 -5 4 9 7 10 11 3 11 -6 0 -15 -5 -19
-11 -3 -6 -14 -9 -24 -6 -16 4 -17 2 -7 -20 9 -20 12 -21 19 -8 9 15 29 21 26
8 -2 -12 14 -47 26 -55 7 -5 6 -8 -2 -8 -8 0 -16 9 -19 20 -3 11 -9 20 -14 20
-12 0 -11 -7 1 -31 7 -13 7 -19 0 -19 -5 0 -10 6 -10 14 0 8 -5 18 -11 22 -8
4 -9 -1 -4 -17 5 -18 4 -20 -4 -9 -13 19 -24 8 -15 -14 5 -12 14 -16 31 -13
13 2 26 0 29 -4 3 -5 -7 -9 -21 -9 -17 0 -24 -4 -19 -12 4 -6 -1 -17 -11 -24
-16 -12 -16 -15 -1 -45 18 -36 16 -48 -4 -24 -7 8 -18 15 -25 15 -15 0 -39
-53 -32 -72 2 -7 8 2 13 20 l9 33 12 -30 c9 -26 9 -31 -3 -31 -14 0 -16 -11
-17 -75 0 -33 18 -75 33 -75 5 0 14 10 21 21 7 14 7 19 0 15 -6 -4 -13 4 -17
19 -3 13 -10 23 -14 20 -4 -3 -10 4 -13 15 -3 11 -1 20 4 20 4 0 6 8 3 18 -5
15 -4 15 10 -2 8 -10 13 -23 10 -27 -3 -5 0 -9 6 -9 6 0 8 -4 5 -10 -3 -5 -1
-10 5 -10 6 0 9 8 6 18 -3 9 -8 30 -12 47 -7 27 -6 28 8 14 9 -9 17 -31 19
-50 2 -19 7 -39 12 -46 5 -7 6 -17 2 -22 -3 -7 0 -8 9 -5 19 7 21 24 4 24 -6
0 -9 2 -6 6 3 3 -1 26 -8 51 -21 70 -19 84 10 73 13 -5 27 -6 30 -3 3 4 6 -3
6 -14 0 -12 6 -24 13 -27 6 -3 3 -4 -8 -3 -11 2 -19 9 -17 18 2 8 0 11 -4 7
-4 -4 -13 -3 -21 3 -27 23 -12 1 31 -44 47 -50 63 -60 46 -26 -7 11 -9 23 -6
27 3 3 -1 16 -10 30 -13 20 -14 26 -3 33 8 5 20 9 27 9 18 0 15 -18 -4 -22
-13 -2 -11 -8 10 -31 30 -32 32 -39 11 -31 -8 4 -15 1 -15 -4 0 -18 19 -24 34
-10 12 11 12 15 -1 30 -9 10 -15 29 -15 42 0 29 -28 60 -35 39 -3 -7 -12 -13
-21 -13 -13 0 -14 2 -4 8 22 15 -18 51 -45 41 -14 -5 -23 -5 -23 1 0 10 25 14
67 11 13 -2 23 5 26 16 4 17 5 17 6 -1 1 -16 4 -15 21 7 11 14 29 25 40 24 14
-1 16 -5 9 -13 -7 -8 -6 -14 1 -19 5 -3 10 -1 10 5 0 6 4 9 9 6 4 -3 7 8 5 25
-3 21 0 28 8 23 8 -5 9 -2 4 11 -5 15 -4 16 9 5 8 -7 15 -9 15 -4 0 5 4 2 10
-6 13 -21 23 -6 22 32 0 18 3 37 8 43 4 5 10 19 13 30 2 11 3 3 2 -18 -2 -20
1 -35 5 -32 10 6 19 -16 13 -32 -3 -7 -11 -13 -18 -13 -16 0 -25 -33 -14 -51
7 -11 9 -9 9 6 l1 20 11 -20 c6 -11 14 -22 18 -25 3 -3 10 -14 14 -25 6 -14
10 -16 13 -7 3 7 -2 21 -10 30 -17 21 -28 62 -16 62 5 0 9 -8 9 -19 0 -10 7
-24 15 -31 13 -10 15 -9 15 9 0 11 -4 21 -10 21 -5 0 -10 5 -10 11 0 23 28
-11 34 -41 3 -17 12 -30 20 -30 8 0 18 -5 22 -12 4 -7 3 -8 -4 -4 -21 13 -31
-3 -19 -27 23 -43 42 -64 73 -77 27 -12 32 -19 31 -46 -1 -20 -5 -30 -11 -27
-6 4 -7 2 -3 -3 5 -5 11 -8 14 -6 3 2 17 -18 30 -43 18 -37 21 -50 12 -61 -9
-11 -9 -14 0 -14 7 0 9 -5 5 -12 -4 -7 -4 -10 1 -6 10 9 42 -26 51 -56 4 -11
12 -24 18 -28 7 -5 5 -8 -5 -8 -9 0 -19 9 -22 20 -3 13 -14 20 -29 21 -18 0
-20 2 -6 7 15 6 13 10 -12 27 -17 11 -30 23 -30 28 0 4 -4 7 -9 7 -5 0 -7 -9
-4 -20 3 -11 9 -18 13 -15 4 2 15 -15 24 -39 17 -44 47 -86 61 -86 5 0 1 8 -8
18 -15 16 -15 18 2 18 14 0 18 -7 16 -23 -3 -26 39 -78 55 -68 6 3 7 -1 4 -9
-8 -20 -9 -20 -35 7 l-23 22 16 -25 c10 -16 24 -24 37 -23 12 2 21 -2 21 -7 0
-6 -5 -10 -12 -10 -7 0 -6 -6 4 -17 23 -27 33 -47 20 -39 -7 4 -12 2 -12 -4 0
-6 -4 -8 -10 -5 -5 3 -10 11 -10 16 0 6 5 7 10 4 6 -3 10 -2 10 4 0 5 -4 13
-10 16 -5 3 -10 0 -10 -7 0 -9 -3 -9 -10 2 -16 24 -11 2 6 -32 9 -18 19 -26
23 -20 4 7 12 8 21 2 10 -6 11 -10 3 -10 -22 0 -2 -28 29 -41 17 -7 26 -15 20
-17 -8 -2 -3 -11 10 -23 13 -10 18 -18 12 -19 -6 0 -25 15 -42 33 -42 44 -62
60 -62 49 0 -5 7 -15 16 -22 8 -8 20 -23 26 -34 10 -20 10 -20 -7 -6 -17 14
-18 13 -12 -19 4 -18 7 -39 7 -46 0 -8 13 -16 30 -20 16 -4 32 -11 35 -16 4
-5 11 -9 16 -9 6 0 2 12 -9 28 -10 15 -24 38 -31 52 l-12 25 18 -25 c9 -14 67
-76 127 -138 61 -62 113 -116 116 -119 9 -13 -35 22 -46 36 -7 8 -16 11 -24 6
-8 -5 -11 -4 -6 3 7 11 -57 76 -77 78 -32 3 -37 5 -37 16 0 9 3 9 12 0 23 -23
31 -12 9 12 -14 15 -31 22 -48 20 -14 -1 -32 4 -40 12 -8 8 -18 14 -22 14 -14
0 1 -53 21 -74 10 -11 18 -24 18 -28 0 -5 5 -6 10 -3 6 4 7 11 4 17 -4 7 -2 8
5 4 9 -6 9 -11 0 -22 -11 -13 -16 -11 -36 13 l-24 28 16 -34 c16 -31 16 -34
-1 -50 -17 -15 -17 -15 -5 1 10 13 10 18 2 18 -7 0 -9 5 -6 10 3 6 -3 23 -14
39 -12 16 -21 34 -21 39 0 6 -5 14 -11 18 -9 5 -10 -1 -5 -20 4 -18 3 -25 -4
-21 -5 3 -10 1 -10 -4 0 -6 4 -11 9 -11 5 0 11 -6 14 -13 2 -6 3 -4 2 5 -2 10
0 18 5 18 12 0 20 -44 10 -54 -6 -6 -10 -19 -9 -31 1 -17 2 -16 8 5 7 22 8 20
14 -17 4 -24 13 -43 20 -43 8 0 7 -4 -3 -10 -9 -6 -10 -10 -3 -10 6 0 13 -10
15 -22 2 -12 10 -24 18 -26 13 -5 13 -3 1 12 -8 9 -12 19 -9 21 9 9 27 -20 30
-46 4 -29 15 -39 46 -39 12 0 22 -4 22 -9 0 -4 -12 -6 -26 -3 -17 3 -25 1 -21
-5 4 -6 -2 -22 -13 -36 -24 -30 -25 -43 -4 -51 8 -3 13 -2 10 2 -2 4 -1 14 5
22 6 11 9 8 9 -14 0 -24 2 -27 15 -16 9 7 17 11 20 9 5 -6 -38 -44 -51 -45
-46 -2 -63 -17 -74 -65 -7 -27 -16 -49 -21 -49 -6 0 -6 7 -1 18 5 9 12 30 16
46 6 24 4 27 -9 22 -9 -3 -13 -2 -10 4 3 6 12 10 20 10 8 0 11 7 8 19 -2 10 3
25 11 34 20 20 20 25 -1 23 -13 -1 -18 7 -19 24 -1 43 -4 51 -14 45 -5 -3 -7
-13 -4 -23 4 -13 1 -11 -14 5 -11 12 -23 19 -27 15 -4 -4 -3 2 3 14 13 25 -2
58 -17 36 -7 -11 -9 -11 -14 2 -3 8 -1 16 6 19 6 2 3 6 -7 10 -16 6 -17 4 -11
-15 4 -13 10 -44 12 -70 4 -34 9 -48 20 -48 9 0 13 6 9 15 -3 8 -1 15 4 15 6
0 10 -13 10 -29 0 -15 9 -41 21 -57 15 -21 11 -19 -13 7 -18 20 -39 34 -45 32
-19 -7 -16 -23 5 -24 14 0 14 -2 -3 -9 -11 -5 -14 -9 -7 -9 20 -1 14 -17 -8
-18 -14 -1 -20 4 -20 18 0 10 -5 19 -11 19 -7 0 -9 -9 -5 -22 3 -13 6 -27 6
-31 0 -5 5 -5 12 -1 8 5 9 2 4 -11 -6 -18 -6 -18 12 -2 17 16 19 15 34 -11 8
-15 13 -33 10 -41 -3 -9 0 -12 10 -8 12 4 14 -2 12 -30 -2 -32 -1 -33 11 -16
13 16 13 14 5 -15 -5 -19 -6 -53 -1 -78 9 -47 21 -70 21 -40 0 9 4 15 8 12 4
-2 9 7 10 20 1 14 6 34 12 44 7 13 7 21 0 25 -6 4 -8 11 -4 16 10 16 34 -10
27 -29 -6 -15 -5 -15 10 -3 20 16 23 1 7 -30 -8 -14 -7 -19 2 -19 10 0 10 -2
-1 -9 -8 -5 -9 -11 -3 -15 14 -9 34 19 36 51 0 15 9 36 19 46 21 21 18 59 -6
87 -22 26 -21 31 1 24 15 -5 14 -3 -2 10 -11 9 -17 18 -14 21 5 6 48 -29 48
-39 0 -4 -4 -4 -10 -1 -5 3 -10 1 -10 -4 0 -6 7 -11 15 -11 8 0 15 -6 15 -12
0 -10 2 -10 9 0 7 11 9 10 14 -3 4 -9 3 -13 -3 -10 -5 3 -12 -6 -16 -20 -4
-18 -1 -32 12 -47 11 -12 13 -18 7 -14 -9 5 -13 0 -13 -13 0 -12 -4 -21 -9
-21 -5 0 -7 9 -4 20 3 11 2 28 -2 37 -6 16 -8 15 -17 -7 -17 -41 -27 -90 -17
-84 5 3 9 0 9 -5 0 -6 -5 -11 -11 -11 -5 0 -7 -5 -3 -11 4 -8 12 -3 20 12 7
13 13 19 14 14 0 -6 10 -16 21 -24 19 -11 21 -11 16 3 -6 14 -3 15 13 6 28
-15 27 -43 -1 -35 -19 6 -21 4 -16 -14 3 -12 1 -19 -4 -15 -5 3 -9 -10 -9 -28
0 -44 -19 -75 -21 -33 0 27 -2 26 -16 -15 -8 -25 -14 -56 -14 -70 0 -22 -1
-23 -10 -8 -7 12 -6 24 1 38 6 11 13 48 15 84 6 67 2 73 -49 83 -15 3 -17 -1
-14 -22 6 -29 -4 -39 -42 -44 -5 0 -10 -12 -10 -26 0 -31 20 -33 21 -2 1 16 2
18 6 4 2 -9 9 -17 15 -17 5 0 8 6 6 13 -3 6 4 20 14 29 19 19 26 10 7 -9 -8
-8 -8 -16 0 -30 6 -10 11 -13 11 -5 0 7 5 10 11 6 7 -4 1 -15 -16 -29 l-28
-22 24 -44 c31 -57 29 -55 38 -40 7 10 10 9 14 -3 4 -9 2 -16 -3 -16 -6 0 -10
-7 -10 -16 0 -24 -20 1 -50 62 -20 41 -27 49 -37 38 -16 -16 -16 -33 2 -64
l14 -25 1 30 c0 34 15 24 26 -19 6 -25 5 -28 -14 -22 -20 7 -40 -15 -37 -39 8
-58 19 -85 34 -85 12 0 13 -2 3 -9 -7 -4 -14 -18 -15 -29 -2 -30 -11 -28 -26
6 -10 25 -10 26 4 8 13 -17 15 -18 15 -3 0 15 -56 47 -81 47 -13 0 -11 -34 2
-47 8 -8 3 -22 -16 -52 l-26 -42 23 -20 c13 -11 18 -18 11 -15 -6 4 -14 -2
-16 -11 -4 -15 -5 -15 -6 2 0 12 -7 27 -13 33 -17 17 -19 65 -2 51 16 -13 50
39 35 54 -6 6 -11 19 -11 28 0 12 -6 16 -20 12 -11 -3 -20 -9 -20 -14 0 -5 -4
-9 -10 -9 -15 0 -12 26 5 40 20 17 19 27 -6 41 -20 10 -21 9 -17 -14 3 -16 1
-25 -6 -24 -6 1 -12 -7 -14 -19 -2 -16 5 -24 30 -32 18 -7 23 -10 12 -8 -30 5
-45 -6 -34 -24 7 -11 10 -12 10 -2 0 7 4 11 10 7 5 -3 7 -12 4 -19 -3 -8 0
-17 5 -21 6 -3 9 -10 6 -15 -3 -5 7 -38 24 -72 28 -60 67 -159 110 -278 11
-30 24 -54 29 -53 6 1 8 -7 5 -17 -4 -14 0 -20 11 -20 11 0 14 4 10 13 -5 8
-2 8 9 -2 23 -18 21 -30 -3 -24 -20 5 -27 -7 -12 -21 7 -7 8 -11 11 -38 1 -9
4 -8 11 2 7 11 8 5 3 -19 -4 -23 -3 -32 5 -28 6 4 8 0 6 -10 -4 -15 32 -51 41
-41 9 12 14 88 5 88 -6 0 -9 4 -6 9 4 5 3 17 0 26 -5 12 -14 15 -32 10 -21 -5
-23 -4 -10 8 8 8 22 16 31 18 14 4 12 13 -13 74 -39 92 -38 104 4 31 l33 -59
6 34 c3 21 0 40 -9 50 -8 9 -11 19 -8 22 4 4 12 -1 19 -10 11 -14 13 -13 17
11 4 19 2 26 -7 22 -8 -3 -10 4 -8 18 8 41 28 25 30 -23 0 -25 4 -57 8 -71 6
-21 5 -23 -6 -13 -7 7 -17 13 -21 13 -11 0 -10 -32 1 -49 8 -13 12 -13 28 0
17 13 17 13 3 -6 -8 -11 -19 -23 -23 -26 -11 -8 21 -132 36 -141 19 -12 27 -9
27 11 0 26 -17 36 -23 14 -3 -10 -5 -1 -4 20 1 21 5 41 10 44 5 3 7 -4 5 -14
-2 -11 4 -28 12 -38 8 -9 20 -31 26 -49 6 -17 15 -39 19 -49 6 -13 4 -16 -9
-11 -9 3 -13 10 -10 15 3 5 0 9 -5 9 -6 0 -11 8 -12 18 0 14 -2 14 -9 -3 -7
-16 -9 -17 -9 -3 -1 9 -5 19 -10 22 -16 10 -20 -21 -5 -49 8 -15 14 -33 14
-40 0 -7 7 -18 15 -25 8 -7 15 -18 15 -24 0 -6 -13 4 -29 23 -16 19 -27 40
-24 47 2 6 0 15 -6 19 -6 3 -12 21 -12 38 -1 24 -3 26 -6 9 -2 -12 -8 -20 -13
-17 -4 3 -6 15 -3 28 3 12 3 19 -1 16 -10 -10 -24 -109 -14 -103 11 7 10 1 -4
-33 -6 -15 -10 -36 -9 -46 3 -20 -10 -22 -27 -5 -7 7 -12 8 -12 4 0 -5 -8 -2
-17 5 -15 12 -16 12 -10 -4 4 -10 7 -21 7 -23 0 -3 5 -2 10 1 6 3 10 -1 10 -9
0 -14 20 -16 85 -7 6 0 10 18 9 39 l-3 37 7 -33 c6 -28 14 -36 45 -47 25 -9
39 -9 44 -2 3 5 1 7 -5 3 -6 -3 -13 -2 -16 3 -4 5 6 11 21 13 17 2 27 8 25 16
-1 8 2 11 8 7 6 -4 9 -9 6 -12 -9 -9 14 -43 29 -43 8 0 15 9 15 20 0 11 4 20
10 20 5 0 7 -6 4 -14 -7 -17 35 -29 53 -14 8 6 13 7 13 0 0 -5 9 -12 19 -15
16 -4 21 2 27 37 6 36 8 38 14 16 4 -17 8 -21 14 -12 19 32 41 -4 26 -44 -8
-20 -7 -25 2 -21 7 2 13 10 14 18 0 8 5 57 9 109 9 95 9 95 21 55 10 -32 13
-35 13 -15 1 14 6 32 12 40 8 12 9 11 5 -5 -3 -11 -8 -38 -12 -60 -4 -22 -12
-46 -18 -54 -9 -12 -8 -12 11 -3 18 10 22 9 26 -6 2 -9 3 -4 1 11 -2 16 2 38
8 50 23 43 39 240 25 317 -13 74 -19 92 -28 79 -5 -8 -9 -26 -9 -41 0 -16 -4
-28 -9 -28 -5 0 -4 19 2 42 6 24 10 63 9 88 -1 34 1 41 9 30 9 -13 10 -12 5 3
-3 9 -2 17 2 17 5 0 6 16 4 36 -3 24 0 39 9 45 12 8 12 11 -1 19 -8 5 -18 10
-22 10 -8 0 -12 -26 -8 -45 8 -33 8 -65 1 -65 -14 0 -22 48 -16 88 4 24 3 32
-3 24 -7 -11 -10 -11 -15 3 -4 9 -3 13 3 10 5 -3 6 9 3 30 -4 24 -2 35 7 35 7
0 10 8 7 20 -3 11 -1 18 4 14 5 -3 9 0 9 6 0 6 4 9 9 6 11 -7 26 52 16 62 -3
3 -11 0 -16 -8 -7 -10 -8 14 -5 75 3 64 2 79 -4 50 -8 -38 -8 -37 -6 15 2 30
7 63 11 73 5 12 3 17 -6 15 -7 -2 -14 6 -16 17 -3 18 -2 18 5 2 12 -29 21 -25
48 23 31 54 38 127 15 140 -14 8 -14 12 -3 30 16 26 15 27 -18 32 -21 2 -25
-1 -25 -22 0 -14 -4 -28 -10 -32 -6 -5 -6 -8 1 -8 6 0 14 -19 18 -42 4 -24 10
-54 13 -68 4 -18 -4 -11 -28 24 -30 45 -34 47 -42 28 -7 -15 -5 -25 7 -37 9
-9 15 -24 15 -33 -1 -15 -2 -15 -6 0 -2 10 -8 18 -13 18 -5 0 -7 -8 -4 -17 5
-14 4 -15 -4 -4 -6 8 -8 21 -5 30 14 38 -18 -9 -57 -84 -38 -75 -110 -186
-110 -170 0 4 20 37 44 74 51 78 111 200 107 220 -1 7 2 10 8 6 10 -6 16 17
11 40 -6 27 -9 41 -9 50 -1 6 -6 3 -11 -5 -8 -12 -10 -9 -10 13 0 16 -4 26 -9
22 -6 -3 -6 6 -1 24 4 16 6 32 2 35 -3 3 -1 6 5 6 11 0 31 -44 32 -70 2 -32 8
-56 19 -75 6 -11 12 -15 12 -8 0 6 -4 14 -10 18 -5 3 -7 11 -4 19 3 7 1 39 -5
72 -5 32 -6 65 -2 72 5 9 8 2 9 -18 1 -44 12 -51 13 -9 l1 34 9 -40 c8 -36 14
-42 48 -51 l39 -11 -2 66 c-1 37 -5 72 -9 78 -4 6 -4 18 -1 26 3 8 1 18 -5 22
-6 3 -11 11 -11 17 0 7 6 6 15 -2 9 -8 15 -8 15 -2 0 6 -5 12 -10 14 -7 2 -6
15 2 37 10 27 10 35 1 38 -7 3 -13 9 -13 15 0 13 -43 47 -52 41 -5 -2 -8 -10
-8 -16 0 -7 4 -6 10 3 7 11 10 6 10 -19 0 -33 1 -34 16 -15 14 17 15 17 10 1
-3 -10 -6 -23 -6 -28 0 -6 -6 -7 -12 -3 -8 5 -7 1 2 -10 8 -11 15 -45 17 -85
2 -36 6 -83 9 -104 6 -33 4 -36 -12 -30 -11 4 -13 8 -6 11 7 2 12 13 11 25 0
18 -2 19 -7 5 -6 -14 -10 -15 -25 -3 -15 11 -17 17 -7 32 10 16 11 16 6 0 -3
-9 -1 -17 4 -17 13 0 13 27 0 35 -13 8 -13 62 0 70 6 3 10 11 10 16 0 6 -4 8
-9 4 -6 -3 -15 4 -21 15 -8 14 -8 20 0 20 6 0 2 13 -10 30 -19 27 -19 29 -3
23 14 -5 16 -3 6 7 -7 8 -9 20 -3 35 5 13 6 26 3 29 -3 3 -5 42 -4 88 1 45 0
80 -3 78 -8 -9 -15 -84 -16 -158 0 -70 -1 -72 -20 -60 -11 7 -20 23 -20 36 0
12 -7 25 -15 28 -9 4 -15 19 -15 39 0 19 -4 37 -10 40 -13 8 -13 55 0 75 7 11
8 6 4 -17 -4 -20 -2 -39 5 -47 7 -8 13 -28 13 -45 1 -44 11 -29 18 27 l7 47 8
-43 c11 -59 19 -45 10 17 -8 56 -30 70 -39 24 -2 -16 -3 -3 -2 27 2 30 10 71
20 90 l16 35 -5 -40 -6 -40 25 43 c28 47 27 73 -4 114 -11 16 -17 28 -12 28 5
0 15 -11 22 -25 16 -29 30 -24 23 8 -5 22 -5 22 10 2 16 -20 16 -19 10 4 -3
13 -14 26 -24 28 -11 3 -17 8 -15 12 3 4 -11 6 -30 6 -34 -2 -46 9 -21 18 11
5 -17 11 -35 8 -5 0 -7 2 -6 7 1 4 -4 17 -12 29 -11 18 -17 20 -29 10 -12 -10
-14 -9 -9 5 4 10 1 19 -8 22 -23 9 -18 39 6 33 11 -3 18 -1 14 4 -3 5 -16 9
-30 9 l-25 0 19 28 c10 15 17 33 15 40 -3 6 0 12 7 12 7 0 8 6 1 19 -6 10 -7
22 -3 26 4 5 2 5 -5 2 -6 -4 -10 -23 -9 -42 3 -37 -16 -66 -30 -44 -4 8 -3 9
4 5 16 -10 15 -5 -8 45 -11 24 -20 59 -20 77 0 20 -6 35 -16 39 -9 3 -14 13
-11 24 3 11 1 19 -5 19 -6 0 -7 9 -4 23 6 19 10 35 15 72 1 6 6 3 11 -5 9 -13
10 -13 11 0 3 44 6 67 13 90 8 25 8 25 -14 -3 -12 -15 -25 -25 -28 -22 -4 3 0
10 7 15 8 4 15 24 16 44 0 28 -2 33 -13 24 -7 -6 -10 -18 -7 -26 3 -8 -4 -24
-15 -34 -22 -21 -29 -2 -7 21 10 11 9 12 -3 6 -13 -8 -13 -7 -1 8 7 9 9 17 4
17 -15 0 -44 -36 -36 -44 4 -4 0 -4 -10 0 -9 3 -17 9 -17 13 0 8 63 45 72 43
5 -1 7 3 5 10 -3 18 45 40 55 25 6 -9 8 -9 8 2 0 7 6 11 15 8 8 -4 17 -2 20 3
4 6 11 10 16 10 6 0 7 -5 3 -12 -5 -7 0 -9 14 -6 13 4 31 -1 46 -13 26 -20 41
-25 31 -10 -3 5 -1 12 4 15 8 5 16 37 28 101 2 11 8 32 14 46 5 14 9 30 8 35
-1 5 1 17 5 26 4 10 6 23 3 30 -4 8 -8 4 -13 -10 -5 -18 -9 -20 -15 -10 -7 10
-9 10 -9 1 0 -7 1 -14 2 -15 1 -2 -4 -13 -11 -25 -12 -23 -37 -33 -26 -10 4 6
-3 1 -15 -13 l-22 -25 23 -6 24 -7 -23 -1 c-12 -1 -25 -8 -29 -17 -4 -12 -8
-13 -13 -3 -7 11 -18 14 -65 18 -5 1 -3 6 5 11 8 5 24 7 36 4 13 -3 23 0 27 8
6 16 -39 23 -57 9 -16 -12 -57 -21 -50 -10 8 14 -53 11 -77 -3 -18 -11 -23
-10 -40 12 -45 58 -57 67 -87 72 -19 3 -32 0 -32 -6 0 -6 -7 -1 -15 11 -14 20
-28 25 -94 38 -12 2 -39 13 -58 25 l-34 20 6 -22 c6 -19 5 -21 -6 -11 -10 10
-15 9 -26 -5 -10 -12 -10 -8 1 15 13 25 13 34 3 45 -6 7 -21 30 -31 51 -11 20
-21 35 -24 32 -3 -2 1 -11 7 -19 7 -8 10 -19 7 -25 -8 -12 4 -42 14 -36 4 3
14 -3 21 -13 13 -15 12 -16 -3 -3 -10 7 -18 10 -18 5 0 -4 -11 3 -24 15 -14
13 -22 29 -20 36 9 24 -14 26 -30 3 -18 -26 -22 -17 -4 11 10 16 5 27 -30 71
-23 29 -44 68 -48 88 -4 21 -11 43 -17 51 -16 19 -17 41 -4 41 9 0 9 2 1 8 -6
4 -16 18 -23 32 -12 24 -12 24 4 5 l17 -20 -5 20 c-3 11 -9 37 -13 59 -4 21
-15 47 -26 58 -10 10 -16 24 -12 31 4 7 4 9 -1 5 -4 -4 -14 -3 -22 4 -22 18
-25 4 -4 -19 18 -19 61 -95 61 -108 0 -3 -4 -5 -9 -5 -5 0 -15 16 -21 36 -7
19 -14 33 -16 31 -9 -9 -12 -67 -3 -62 5 4 9 1 9 -4 0 -22 2 -26 16 -34 8 -4
14 -12 14 -18 0 -11 -41 8 -52 25 -5 7 -8 6 -8 -4 0 -17 45 -41 64 -34 7 3 13
-1 13 -9 0 -8 -12 -13 -33 -13 -22 0 -30 4 -27 13 3 7 0 13 -5 13 -23 0 -24
-42 -2 -73 13 -16 18 -27 11 -23 -16 10 -14 1 9 -46 11 -23 18 -43 16 -45 -2
-2 -16 24 -32 58 l-28 61 -17 -38 c-20 -45 -24 -36 -8 19 8 31 6 47 -12 97
-12 34 -26 57 -32 53 -5 -3 -7 -1 -4 4 4 6 0 23 -8 39 l-14 28 -10 -26 c-16
-42 -30 -43 -26 -1 3 21 2 29 -1 18 -13 -48 -16 -50 -31 -13 -17 42 -28 48
-36 18 -6 -25 -24 -26 -31 -2 -3 9 -3 1 0 -18 2 -19 5 -52 5 -72 1 -24 5 -35
12 -31 6 3 3 -4 -6 -18 -9 -13 -17 -34 -17 -47 0 -24 -36 -103 -52 -113 -5 -3
-11 -14 -12 -24 -2 -11 -9 -21 -17 -23 -11 -3 -11 -1 1 7 8 6 10 11 4 11 -5 0
-20 -9 -31 -19 -11 -11 -42 -26 -69 -35 -27 -8 -67 -22 -89 -30 -22 -8 -51
-15 -65 -15 -21 1 -19 3 10 11 74 21 78 25 33 32 -54 10 -87 50 -81 101 3 27
1 32 -9 23 -7 -6 -13 -17 -13 -26 0 -13 -3 -12 -20 3 -15 14 -17 20 -8 26 9 6
7 14 -10 32 -12 13 -22 28 -22 34 0 6 -5 13 -12 15 -8 3 -8 9 -1 23 8 13 6 31
-7 69 -13 34 -15 53 -8 57 6 4 8 19 6 33 -3 14 -1 26 3 26 5 0 9 8 9 18 0 21
85 87 99 78 5 -4 12 0 14 6 4 10 7 10 15 0 7 -11 10 -11 16 3 3 9 10 13 16 10
5 -3 10 -1 10 4 0 18 18 12 23 -6 4 -15 5 -14 6 3 0 11 -5 26 -11 33 -11 10
-10 11 5 6 9 -4 17 -13 17 -21 0 -17 16 -18 26 -2 5 7 3 8 -6 3 -9 -5 -11 -4
-6 3 10 16 56 15 56 0 0 -7 11 -13 25 -13 14 0 25 6 25 13 0 6 -3 12 -7 12 -5
0 -8 14 -8 31 0 28 1 29 15 11 8 -10 18 -19 23 -20 4 -1 6 -5 5 -9 -2 -5 -6
-7 -10 -6 -4 2 -4 -5 -1 -15 8 -21 43 -56 43 -42 0 5 7 10 15 10 13 0 12 5 -2
35 -9 19 -20 35 -24 35 -13 0 -19 31 -9 43 6 7 19 23 30 37 l20 25 -6 -26 c-4
-20 -2 -26 13 -26 10 0 24 7 31 16 11 14 12 13 7 -6 -5 -17 -3 -21 7 -18 18 7
59 100 52 118 -3 8 2 50 11 93 9 44 17 85 17 92 2 14 28 17 28 2 0 -5 -4 -10
-9 -10 -15 0 -21 -30 -11 -51 6 -10 16 -19 23 -19 8 0 7 4 -3 11 -13 9 -13 10
0 8 30 -3 39 1 34 15 -3 8 0 17 7 22 9 5 11 2 6 -8 -10 -26 6 -30 21 -6 l13
23 -4 -22 c-6 -26 10 -31 20 -7 3 8 12 13 20 10 26 -10 36 6 11 18 -12 7 -25
9 -28 6 -3 -4 -13 1 -23 11 -18 17 -17 17 25 13 23 -3 57 -6 74 -8 17 -2 35
-5 40 -8 5 -3 15 1 23 9 12 13 11 14 -10 8 -18 -5 -21 -4 -9 4 24 17 60 14 54
-4 -4 -10 0 -15 11 -15 9 0 13 4 10 10 -3 6 1 7 9 4 9 -3 13 -10 10 -15 -3 -5
0 -9 6 -9 7 0 9 18 6 51 -5 65 14 51 21 -15 6 -46 25 -62 37 -31 3 8 12 15 21
15 18 0 20 -16 3 -23 -8 -3 -6 -6 5 -6 10 -1 37 -10 59 -21 23 -11 47 -20 53
-20 7 0 27 -8 46 -17 19 -9 50 -18 69 -20 l35 -3 -44 25 c-28 16 -59 25 -90
26 -28 0 -39 3 -28 7 13 6 6 11 -29 21 -25 8 -62 29 -82 49 -39 36 -28 34 24
-4 51 -39 386 -148 504 -165 95 -14 123 -17 134 -18 6 -1 6 -5 0 -11 -6 -6
-21 -6 -42 -1 -20 6 -30 6 -27 0 4 -5 -2 -9 -12 -9 -10 0 -33 4 -51 9 -20 6
-30 6 -26 0 3 -6 -16 -7 -50 -3 -42 5 -56 4 -56 -6 0 -7 7 -10 17 -6 10 4 32
-4 55 -20 29 -20 42 -24 50 -16 8 8 8 15 -2 27 -19 23 -1 18 32 -10 30 -26 65
-35 52 -13 -5 8 -2 9 12 3 10 -4 29 -10 41 -12 13 -3 20 -9 17 -14 -3 -5 1 -9
9 -9 8 0 24 -9 37 -20 13 -11 40 -25 61 -30 21 -6 41 -15 45 -21 3 -6 13 -8
23 -4 12 5 13 4 4 -6 -9 -9 -25 -6 -71 14 -37 15 -64 22 -72 17 -10 -6 -6 -10
16 -15 16 -4 47 -12 69 -20 42 -14 92 -14 115 0 9 6 12 4 8 -7 -4 -8 3 -20 14
-27 18 -11 20 -11 15 4 -4 9 0 29 8 45 14 28 12 60 -5 60 -5 0 -32 -12 -61
-26 -58 -30 -75 -26 -98 21 -11 24 -17 27 -47 22 -18 -3 -36 -1 -39 4 -4 5 8
9 25 9 18 0 29 4 25 10 -7 12 27 1 35 -11 3 -5 35 32 72 81 62 84 64 90 44 96
-11 4 -32 15 -46 24 -31 22 -112 48 -163 54 -21 2 -48 12 -60 23 -12 11 -29
18 -37 15 -12 -4 -13 -2 -3 9 10 10 10 16 -1 28 -8 9 -24 41 -37 71 -32 76
-94 182 -121 207 -13 12 -29 29 -36 38 -7 8 -18 12 -24 9 -6 -4 -8 -3 -5 3 5
9 -53 51 -62 44 -2 -1 -7 3 -11 9 -6 9 -13 9 -29 1 -17 -9 -20 -9 -15 3 6 16
-60 51 -116 63 -17 3 -33 10 -36 14 -3 5 -18 9 -33 9 -16 0 -34 6 -41 14 -6 8
-18 12 -26 9 -10 -4 -12 0 -8 11 5 12 0 19 -14 23 -11 3 -23 11 -26 18 -3 9 7
7 30 -7 19 -11 34 -17 34 -14 0 9 -133 83 -172 96 -23 7 -55 31 -82 61 -41 46
-67 65 -50 37 5 -9 2 -9 -9 1 -18 15 -23 26 -7 16 6 -3 10 -2 10 2 0 15 -66
74 -73 67 -4 -4 -7 0 -7 9 0 9 -4 17 -9 17 -6 0 -31 39 -57 87 -26 48 -55 94
-65 104 -10 10 -15 19 -13 22 5 4 -69 151 -87 173 -5 6 -25 44 -45 85 -21 41
-50 93 -66 116 -15 23 -28 45 -28 50 0 4 -18 37 -40 73 -22 36 -47 86 -54 111
-26 87 -74 145 -181 219 -27 19 -55 41 -61 49 -6 8 -16 11 -23 7 -6 -4 -10 -3
-9 4 2 6 -8 19 -22 28 -13 9 -21 12 -17 5 5 -7 0 -9 -14 -6 -16 4 -17 8 -7 14
20 13 -19 38 -62 40 -25 1 -28 3 -12 6 21 4 19 7 -24 38 -26 18 -54 31 -63 28
-11 -3 -12 -2 -4 4 14 10 -49 64 -141 121 -32 21 -77 53 -100 73 -60 52 -147
106 -181 112 -16 2 -45 0 -62 -7z m307 -3845 c-6 -12 -7 -21 -2 -21 12 0 33
25 27 32 -3 2 2 5 10 5 13 0 13 -3 1 -16 -7 -9 -23 -36 -35 -61 -12 -25 -19
-35 -17 -22 7 36 -8 25 -32 -23 -25 -53 -27 -62 -9 -46 8 6 17 7 21 3 4 -4 6
-1 4 7 -1 8 5 17 15 19 9 2 17 -2 17 -8 0 -6 -4 -8 -10 -5 -6 3 -7 -1 -4 -9 6
-14 -5 -21 -28 -17 -4 0 -5 -6 -2 -14 4 -8 14 -15 23 -15 14 0 14 -2 1 -10
-11 -7 -18 -5 -26 5 -10 13 -15 8 -33 -27 -22 -45 -16 -57 19 -38 22 12 62 -1
41 -14 -6 -4 -11 -2 -11 4 0 7 -6 8 -19 0 -11 -5 -29 -10 -40 -10 -15 0 -21
-6 -21 -24 0 -23 -34 -76 -49 -76 -5 0 -1 15 8 34 9 18 18 32 21 31 3 -2 6 8
6 21 2 19 -5 15 -42 -28 -24 -29 -44 -56 -44 -62 0 -5 -3 -7 -6 -4 -6 7 12 42
41 78 l20 25 -25 -20 c-14 -11 -29 -26 -33 -33 -5 -7 -18 -21 -30 -32 -19 -18
-23 -19 -36 -5 -13 13 -12 17 5 36 10 11 18 24 17 28 -2 3 3 6 10 6 6 1 11 6
10 13 -2 7 2 12 7 12 6 0 23 11 38 25 15 14 31 25 36 25 5 0 -1 -11 -14 -25
-13 -14 -19 -25 -14 -25 5 0 22 19 37 43 15 23 29 40 30 38 1 -3 11 0 22 6 17
10 18 14 7 38 -7 16 -17 23 -24 19 -7 -4 -8 -3 -4 5 4 6 16 9 27 6 14 -5 21 0
29 20 5 14 9 29 8 33 -4 18 16 62 27 62 8 0 17 9 20 21 4 11 9 18 12 16 2 -3
0 -15 -7 -26z m-39 -1048 c-5 -18 -7 -40 -5 -50 6 -23 -12 -73 -26 -73 -5 0
-10 5 -10 11 0 5 5 7 12 3 7 -4 8 -3 4 4 -4 6 -2 21 5 33 8 16 8 20 -1 14 -18
-11 -32 -57 -21 -68 5 -5 6 -21 0 -40 -13 -45 -11 -54 6 -31 17 23 19 14 4
-20 -7 -14 -16 -23 -20 -20 -5 3 -6 -1 -3 -9 3 -8 -2 -20 -10 -27 -9 -7 -13
-17 -10 -22 8 -12 -16 -69 -26 -63 -5 3 -11 1 -15 -5 -4 -6 -10 -8 -15 -5 -5
3 -12 0 -16 -6 -4 -8 -3 -9 4 -5 19 12 14 -6 -18 -59 -16 -27 -30 -63 -31 -80
0 -24 -2 -26 -8 -11 -6 15 -13 9 -41 -38 -19 -30 -36 -54 -38 -51 -2 2 16 37
40 77 40 65 88 180 88 209 0 5 -5 7 -12 3 -7 -4 -8 -3 -4 5 4 6 11 9 16 6 12
-7 44 101 36 121 -3 9 -1 12 4 9 6 -3 10 0 10 8 0 16 52 123 70 145 6 7 8 17
5 22 -3 6 -1 10 5 10 7 0 9 7 6 16 -8 20 3 39 15 27 5 -5 5 -22 0 -40z m-5
-281 c1 -7 0 -8 -3 -2 -2 5 -9 10 -14 10 -6 0 -8 -4 -5 -9 4 -5 3 -11 -1 -13
-13 -5 -54 -90 -47 -97 4 -3 9 0 11 7 3 6 12 12 20 12 13 0 13 -3 2 -16 -7 -8
-21 -13 -31 -11 -13 4 -18 0 -17 -16 0 -12 3 -16 6 -9 2 6 9 10 13 7 5 -3 7
-12 3 -20 -3 -9 1 -15 9 -15 14 0 53 94 50 120 -2 12 0 12 8 -1 7 -12 5 -31
-5 -65 -8 -27 -15 -51 -15 -54 0 -2 12 15 27 38 15 24 30 37 32 31 2 -7 -4
-18 -14 -25 -10 -8 -19 -28 -20 -46 -1 -18 -7 -53 -14 -77 -16 -54 -8 -62 24
-25 14 16 25 26 25 21 0 -12 -53 -88 -58 -83 -7 8 -42 -13 -42 -26 0 -6 9 -3
20 7 37 33 21 -3 -17 -39 -49 -46 -30 -47 21 -1 22 19 42 32 45 29 3 -3 -5
-14 -18 -25 -13 -10 -18 -19 -12 -19 7 0 9 -5 5 -11 -5 -8 -8 -8 -13 0 -5 7
-20 0 -45 -21 -45 -38 -60 -71 -46 -99 7 -12 7 -19 1 -19 -5 0 -12 8 -14 18
-4 13 -5 12 -6 -5 0 -12 5 -23 12 -26 6 -3 2 -4 -10 -4 -13 1 -23 7 -23 14 0
25 -23 24 -51 -3 -18 -18 -27 -34 -24 -45 3 -10 1 -20 -4 -24 -7 -4 -8 1 -4
12 6 16 5 16 -11 4 -9 -8 -15 -20 -12 -27 7 -18 -13 -29 -27 -15 -8 8 -8 11 1
11 7 0 12 6 12 13 0 7 9 23 21 35 11 13 17 28 13 35 -4 6 -3 9 1 4 5 -4 19 3
32 14 21 21 21 23 5 35 -10 8 -12 13 -5 14 7 0 10 8 7 18 -3 9 3 2 13 -17 24
-46 38 -48 53 -9 7 18 22 43 33 56 11 12 17 22 12 22 -4 0 0 9 10 20 22 24 14
38 -9 15 -16 -16 -36 -13 -36 7 0 5 7 7 16 4 20 -8 67 42 61 66 -3 10 -1 18 4
18 5 0 9 -5 9 -12 0 -23 13 2 15 29 2 16 6 46 10 68 l7 40 -20 -29 c-11 -16
-18 -35 -15 -42 3 -8 0 -14 -6 -14 -6 0 -8 -6 -5 -14 3 -7 -1 -16 -8 -18 -9
-4 -13 4 -14 26 -2 89 -5 109 -13 101 -14 -16 -23 -65 -11 -65 7 0 7 -7 -1
-22 -10 -18 -9 -20 5 -15 20 8 21 -7 1 -23 -9 -7 -14 -19 -11 -26 3 -8 0 -11
-8 -8 -8 3 -17 1 -21 -5 -3 -6 -1 -11 5 -11 6 0 8 -5 4 -11 -4 -8 -9 -7 -15 2
-15 24 -29 -8 -31 -68 0 -14 -4 -20 -11 -16 -6 4 -8 0 -4 -10 4 -11 1 -17 -8
-17 -11 0 -12 5 -5 25 5 14 7 25 4 25 -4 0 -2 6 4 13 6 6 13 35 15 62 8 72 8
73 17 45 7 -24 7 -24 17 10 6 19 14 34 20 33 5 -1 9 15 10 35 2 91 7 132 14
120 6 -9 10 -7 16 7 35 85 72 125 79 87z m1946 -179 c5 -6 15 -10 21 -7 7 2
17 -7 23 -20 9 -20 9 -23 -2 -19 -10 4 -14 -6 -16 -38 l-1 -44 -4 38 c-3 24
-8 35 -15 31 -7 -4 -8 -2 -4 5 4 7 5 20 1 29 -6 14 -9 11 -16 -13 -5 -18 -5
-32 2 -36 6 -3 12 -19 14 -35 1 -15 8 -30 14 -32 14 -5 14 -69 0 -78 -8 -5
-10 4 -7 30 3 24 0 36 -8 36 -7 0 -10 -9 -8 -22 3 -18 1 -16 -11 7 l-16 30 6
-30 c4 -16 12 -33 18 -37 9 -6 8 -11 -3 -18 -11 -7 -17 -4 -25 13 -5 12 -14
29 -20 37 -13 20 -15 40 -4 40 5 0 10 -8 10 -17 1 -17 2 -17 6 0 2 9 9 17 14
17 6 0 7 5 3 11 -4 8 -9 7 -15 -2 -6 -10 -9 -4 -9 17 0 16 3 34 8 40 4 5 -1 1
-10 -9 -9 -10 -14 -25 -11 -32 3 -8 0 -15 -7 -15 -6 0 -8 5 -5 10 3 6 1 10 -4
10 -15 0 -9 -29 19 -88 16 -33 30 -51 40 -49 9 1 16 -7 18 -20 2 -13 7 -23 12
-23 4 0 8 -10 7 -22 0 -13 2 -30 4 -38 3 -9 -5 -16 -20 -18 -19 -3 -21 -6 -10
-14 14 -10 3 -8 -38 9 -12 5 -14 3 -8 -7 5 -9 4 -11 -4 -6 -18 12 -3 26 28 26
15 0 30 3 34 6 7 8 -11 46 -52 107 -18 27 -18 27 -28 5 -6 -15 -12 -18 -17
-10 -4 7 -2 12 3 12 16 0 13 51 -4 80 -8 14 -14 19 -15 10 0 -9 -5 -7 -16 9
-13 17 -14 25 -5 34 9 9 11 7 6 -8 -3 -11 1 -7 8 9 10 20 16 25 19 15 5 -12 7
-12 19 0 12 12 12 13 -1 6 -8 -4 1 6 20 23 19 17 29 31 23 32 -9 0 -8 10 5 34
12 24 18 29 21 18 2 -10 7 -22 13 -29z"/>
<path d="M1376 5454 c-13 -13 -20 -14 -31 -4 -16 13 -65 6 -65 -10 0 -6 14
-41 32 -80 21 -46 35 -66 40 -57 5 7 8 -11 7 -43 -2 -47 0 -55 15 -54 9 1 15
-3 13 -10 -2 -6 0 -21 4 -33 12 -31 3 -29 -16 5 -16 27 -16 27 -11 2 3 -14 6
-47 6 -75 0 -36 3 -46 10 -35 8 13 10 12 10 -2 0 -10 -5 -18 -10 -18 -7 0 -7
-6 -1 -19 6 -10 8 -20 6 -23 -2 -2 -7 -42 -10 -88 -3 -47 -8 -95 -11 -107 -5
-27 1 -29 23 -8 19 19 39 14 35 -9 -2 -11 4 -16 23 -16 14 0 25 4 25 10 0 5
-6 7 -13 4 -8 -3 -14 4 -15 18 -4 33 -4 40 2 66 3 15 0 25 -9 29 -8 3 -15 10
-15 15 0 6 6 5 15 -2 12 -10 16 -8 25 15 13 35 14 34 -16 29 -22 -4 -24 -3
-14 16 11 21 30 27 30 10 0 -5 5 -10 10 -10 20 0 9 20 -15 26 -13 3 -30 13
-37 22 -12 15 -11 16 5 3 15 -12 17 -11 17 8 0 11 -5 21 -12 21 -9 0 -9 3 0
12 9 9 8 16 -5 30 -13 14 -13 20 -3 33 7 8 16 13 19 10 4 -2 8 9 8 25 0 18 -4
27 -11 23 -6 -4 -5 1 2 10 8 9 11 20 8 26 -4 5 4 7 16 4 l23 -6 -22 22 c-28
26 -28 29 -5 27 10 0 16 5 14 14 -3 12 -1 13 9 3 23 -23 30 -14 14 17 -8 16
-15 36 -15 45 0 16 -15 21 -24 7 -3 -5 -20 -9 -38 -10 -28 -1 -30 1 -17 11 10
8 14 19 9 32 -6 18 -7 18 -17 1 -6 -11 -15 -16 -22 -12 -15 10 4 36 25 36 11
0 13 7 8 28 -9 36 -9 36 -28 16z"/>
<path d="M1840 5403 c-25 -16 -40 -33 -120 -143 -25 -34 -60 -82 -78 -106 -24
-33 -31 -51 -26 -67 6 -18 8 -19 18 -6 18 25 46 31 46 11 0 -15 2 -15 10 -2 6
10 5 19 -4 28 -11 11 -10 20 5 52 11 22 19 46 19 55 0 13 26 21 54 16 5 -1 6
10 4 24 -4 18 -1 25 11 26 12 0 11 2 -4 9 -18 8 -18 9 5 9 14 1 33 9 41 19 9
9 31 29 49 45 17 15 26 27 19 28 -8 0 -5 4 6 9 18 8 18 9 -5 8 -14 0 -36 -7
-50 -15z"/>
<path d="M5158 4263 c-22 -3 -28 -10 -28 -28 0 -27 -33 -51 -52 -39 -7 4 -23
17 -36 28 -13 12 -38 23 -55 26 -30 5 -33 2 -50 -40 -31 -80 -31 -80 -3 -80
14 0 28 -4 31 -10 3 -5 17 -10 30 -10 12 0 26 -7 29 -16 4 -12 1 -14 -13 -9
-20 6 -39 -11 -26 -23 4 -4 10 -1 13 7 3 10 9 8 23 -10 10 -13 21 -20 26 -16
4 5 1 12 -6 16 -9 6 -10 11 -3 15 6 4 16 -2 21 -12 7 -13 26 -21 61 -26 84
-11 142 -45 132 -76 -5 -13 -3 -13 12 -1 9 8 19 11 23 7 3 -3 0 -6 -8 -6 -21
-1 120 -51 160 -57 29 -5 33 -3 28 11 -4 9 -3 16 1 16 18 0 36 68 46 176 3 23
13 65 22 92 10 28 15 54 11 58 -8 8 -348 15 -389 7z"/>
<path d="M1973 3528 c-11 -13 -19 -28 -16 -35 2 -6 -1 -14 -6 -18 -7 -4 -9 1
-5 12 4 12 0 10 -15 -7 -11 -14 -21 -20 -21 -13 0 6 5 15 10 18 12 7 13 25 3
25 -5 0 -13 -11 -19 -25 -9 -18 -9 -25 0 -28 6 -3 -9 -24 -33 -48 -25 -24 -39
-37 -33 -28 8 11 8 19 1 26 -8 8 -6 11 7 10 13 -2 18 4 17 18 -1 11 4 23 10
27 7 4 3 6 -10 5 -18 -1 -20 -4 -11 -21 8 -15 7 -18 -5 -13 -9 3 -19 -4 -26
-19 -22 -49 33 -81 83 -48 14 9 24 19 22 23 -3 4 5 18 16 31 11 14 17 19 13
13 -13 -26 11 -12 38 21 32 41 32 44 10 63 -10 8 -12 12 -6 8 9 -4 11 -1 7 9
-8 20 -7 20 -31 -6z"/>
<path d="M2773 3368 c-10 -13 -25 -24 -33 -26 -24 -6 -37 -20 -59 -68 -21 -43
-37 -62 -24 -26 6 15 5 15 -10 3 -21 -17 -21 -13 0 30 22 43 25 76 8 76 -7 0
-11 -6 -9 -12 3 -7 -7 -20 -22 -30 -14 -9 -23 -12 -20 -6 4 6 2 11 -3 11 -15
0 -14 -27 2 -33 6 -2 21 3 31 12 22 18 18 8 -16 -41 -16 -23 -16 -27 -4 -22
21 8 21 -19 1 -40 -9 -8 -11 -17 -6 -21 6 -3 15 4 21 16 7 11 14 18 17 15 8
-8 53 54 53 73 0 10 3 12 8 5 4 -6 14 -14 22 -17 11 -4 10 -7 -7 -12 -33 -10
-37 -34 -8 -47 14 -6 25 -17 25 -23 0 -17 -25 -36 -35 -27 -5 4 -5 2 -2 -5 4
-6 13 -10 21 -9 17 2 72 66 57 66 -22 0 -26 -2 -23 -11 1 -5 -9 -2 -23 7 -14
9 -25 21 -25 28 0 6 4 5 9 -3 7 -11 11 -10 21 5 11 18 11 18 5 0 -6 -19 -5
-19 15 -1 11 10 21 15 21 12 1 -4 3 -11 4 -17 1 -5 3 -13 4 -17 0 -4 7 1 14
11 8 11 19 15 31 10 14 -5 15 -9 4 -15 -9 -6 -9 -9 -1 -9 7 0 17 9 23 19 14
26 13 31 -6 31 -9 0 -12 -5 -8 -12 5 -8 2 -9 -12 -4 -10 4 -26 9 -33 10 -20 4
-25 23 -6 23 8 0 15 -4 15 -9 0 -5 11 -1 24 9 13 10 22 21 19 26 -2 4 3 7 11
7 10 0 16 9 16 26 0 14 -4 23 -10 19 -5 -3 -7 -12 -3 -20 3 -9 -1 -15 -10 -15
-9 0 -19 -9 -22 -20 -3 -11 -11 -20 -16 -20 -13 0 -11 14 4 29 10 11 10 13 0
7 -7 -4 -13 -2 -13 3 0 6 7 11 15 11 8 0 15 5 15 10 0 15 -50 6 -61 -11 -7
-12 -9 -12 -9 0 0 8 7 23 17 33 9 10 14 21 11 24 -3 3 -14 -5 -25 -18z"/>
<path d="M1106 2714 c-3 -8 -2 -12 4 -9 6 3 10 -3 10 -14 0 -24 -16 -36 -24
-19 -3 7 -3 3 0 -10 3 -12 6 -32 8 -45 1 -13 6 -28 10 -35 4 -7 3 -12 -3 -12
-5 0 -11 6 -14 13 -8 25 -39 -15 -35 -45 3 -15 1 -28 -3 -28 -4 0 -5 -9 -2
-19 3 -11 0 -28 -6 -38 -10 -17 -10 -17 -11 1 0 15 -3 16 -14 6 -8 -6 -12 -18
-9 -26 3 -7 -2 -16 -10 -20 -8 -3 -18 -17 -21 -30 -4 -15 -11 -22 -18 -18 -7
5 -8 3 -4 -5 5 -7 15 -10 23 -7 8 4 11 1 7 -5 -3 -6 -14 -9 -24 -6 -16 4 -17
1 -9 -19 7 -20 3 -33 -26 -74 -38 -55 -44 -70 -18 -49 18 15 17 14 -4 -38 -3
-7 0 -13 6 -13 5 0 15 17 21 39 9 36 40 77 40 53 0 -6 -6 -13 -12 -15 -8 -3
-6 -6 5 -6 18 -1 25 -21 6 -21 -5 0 -7 -5 -4 -10 4 -6 2 -16 -3 -23 -5 -7 -13
-22 -16 -34 -9 -28 8 -30 31 -4 26 31 38 16 36 -42 -2 -28 0 -46 3 -39 3 6 10
10 15 6 5 -3 9 1 9 8 0 9 3 9 10 -2 8 -12 10 -11 10 8 0 25 -10 28 -29 10 -11
-11 -12 -10 -6 1 7 12 9 24 14 71 1 12 3 13 10 1 6 -10 11 -5 16 18 6 26 9 30
21 20 8 -6 14 -17 14 -23 0 -7 -3 -7 -8 1 -5 8 -14 1 -27 -22 -10 -19 -16 -38
-13 -41 9 -8 39 26 33 37 -4 5 0 9 8 9 18 0 28 38 22 82 l-5 33 10 -30 c6 -16
9 -38 6 -47 -2 -10 1 -15 9 -12 7 3 15 -4 18 -15 6 -23 -9 -39 -16 -19 -2 7
-3 4 -1 -7 2 -11 4 -35 4 -53 0 -20 4 -31 10 -27 5 3 10 21 10 40 0 19 4 36 9
39 5 3 7 15 4 25 -3 10 0 21 5 25 6 3 8 -12 7 -38 -2 -29 1 -43 9 -43 8 0 11
9 8 25 -3 17 -1 23 6 18 12 -7 9 -49 -7 -104 -12 -40 -4 -89 14 -96 11 -4 10
3 -1 31 -12 26 -12 39 -4 47 8 8 10 7 5 -5 -3 -9 1 -21 9 -28 12 -10 16 -8 22
11 4 13 7 35 6 51 -2 18 3 27 13 27 18 0 19 5 5 31 -6 11 -7 25 -3 32 4 6 6
21 5 32 -2 15 0 16 6 7 7 -11 10 -11 15 2 4 11 1 16 -11 16 -10 0 -13 3 -6 8
20 14 25 42 6 42 -13 0 -12 4 8 20 28 22 45 26 34 8 -4 -7 -9 -26 -10 -43 l-3
-30 14 30 c8 17 14 35 15 41 0 18 -38 56 -49 49 -16 -9 -75 22 -117 63 -21 20
-46 36 -57 37 -11 0 -22 6 -24 13 -3 6 0 12 7 12 6 0 8 -4 5 -10 -3 -5 1 -10
9 -10 8 0 18 5 21 10 3 6 1 10 -6 10 -8 0 -8 4 -2 13 6 7 7 36 3 72 -4 33 -5
72 -3 88 3 15 1 27 -4 27 -5 0 -7 15 -5 34 4 35 -12 57 -22 30z"/>
<path d="M3570 1931 c0 -7 -6 -11 -12 -9 -14 5 -38 -15 -38 -31 0 -6 5 -11 10
-11 6 0 2 -8 -7 -18 -10 -11 -21 -17 -25 -15 -5 2 -8 -2 -8 -9 0 -7 -8 -22
-16 -33 -16 -20 -16 -19 -9 4 5 16 4 21 -4 17 -6 -4 -11 -14 -11 -23 0 -13 -3
-13 -15 -3 -13 11 -14 10 -9 -3 3 -8 -1 -26 -10 -39 -13 -21 -13 -25 3 -45 18
-21 18 -21 47 -2 16 10 34 19 39 19 6 -1 -7 -11 -27 -24 -35 -21 -37 -24 -23
-42 13 -18 14 -18 15 -1 0 10 5 15 10 12 6 -3 7 -18 3 -33 -5 -23 -4 -25 9
-15 8 7 17 10 20 7 3 -3 6 5 6 18 0 13 2 43 5 67 7 55 0 76 -19 60 -8 -6 -14
-16 -14 -21 0 -6 7 -5 15 2 13 11 14 10 9 -4 -4 -11 -14 -16 -25 -13 -10 3
-26 -4 -35 -14 -12 -13 -20 -16 -25 -8 -10 16 0 47 18 54 13 4 14 3 3 -10 -20
-24 -7 -18 61 27 34 23 57 44 50 46 -8 3 -6 9 7 18 11 8 27 11 35 8 9 -3 20 3
26 15 17 31 12 38 -8 14 -10 -12 -21 -20 -24 -17 -2 3 -19 -4 -37 -14 -17 -11
-26 -22 -20 -24 8 -2 7 -8 -4 -17 -14 -12 -16 -11 -13 7 2 11 9 27 16 36 7 8
10 20 6 25 -3 6 0 8 8 5 14 -5 32 34 22 45 -3 2 -5 -1 -5 -8z"/>
<path d="M3092 1843 c-6 -27 -14 -70 -18 -98 -4 -27 -11 -56 -16 -62 -8 -9 -6
-13 6 -13 9 0 16 -4 16 -10 0 -21 41 -9 75 21 40 36 69 84 59 100 -3 6 2 19
11 29 16 18 16 18 -4 13 -14 -4 -23 -16 -27 -42 -9 -50 -15 -57 -31 -35 -13
18 -14 17 -8 -6 5 -21 2 -26 -12 -26 -17 0 -19 9 -18 72 0 40 3 70 7 67 5 -2
8 3 8 12 0 11 -5 15 -16 11 -8 -3 -12 -2 -9 4 3 6 2 10 -3 10 -4 0 -13 -21
-20 -47z"/>
<path d="M3312 1829 c-7 -11 -19 -19 -25 -16 -17 6 -57 -10 -57 -23 0 -6 5 -8
10 -5 25 15 6 -30 -26 -63 -50 -52 -60 -65 -67 -84 -6 -18 -21 -18 -54 0 -21
12 -23 11 -23 -14 0 -22 2 -25 15 -14 20 16 19 6 -1 -25 -9 -14 -14 -31 -11
-40 4 -8 2 -17 -3 -20 -6 -4 -11 6 -11 22 -1 15 -3 35 -4 43 -1 8 -3 28 -4 44
-1 32 -9 32 -14 -1 -1 -12 -8 -28 -15 -36 -7 -8 -11 -30 -10 -48 2 -26 -1 -33
-12 -31 -8 2 -12 0 -8 -3 4 -4 1 -17 -7 -27 -7 -11 -11 -28 -8 -37 3 -11 2
-12 -4 -4 -9 12 -16 -6 -43 -116 -15 -56 -23 -48 -11 12 8 47 0 62 -18 30 -5
-10 -11 -47 -14 -83 -3 -36 -6 -66 -6 -67 -1 -2 -5 -3 -9 -3 -4 0 -8 24 -7 54
0 39 -3 52 -12 49 -7 -3 -13 -10 -14 -17 -1 -6 -2 -24 -4 -41 -1 -16 -5 -37
-9 -46 -4 -9 -5 -36 -3 -60 4 -32 -1 -57 -17 -89 -11 -25 -20 -57 -18 -71 4
-30 52 -83 52 -57 0 9 7 21 15 28 10 9 15 9 15 1 0 -6 -4 -11 -9 -11 -12 0
-22 -45 -27 -119 -4 -65 4 -123 17 -115 5 3 6 -2 3 -10 -10 -26 12 -18 31 10
26 40 84 98 91 91 3 -3 -6 -17 -21 -31 -16 -15 -23 -26 -17 -26 6 0 9 -7 5
-16 -4 -12 -8 -13 -14 -3 -6 10 -13 6 -30 -15 -12 -15 -27 -33 -34 -39 -7 -7
-9 -26 -4 -56 4 -25 8 -66 9 -91 0 -33 3 -41 10 -30 6 10 8 -8 4 -55 -7 -83 9
-73 27 18 7 32 15 59 19 62 11 7 4 -79 -9 -103 -7 -13 -12 -46 -13 -75 l0 -52
-14 30 -14 30 3 -38 c2 -23 -1 -36 -7 -34 -18 6 -36 50 -34 82 l1 30 4 -27 c2
-16 8 -28 12 -28 15 0 17 34 5 95 l-12 60 -1 -50 c-1 -36 -4 -46 -11 -35 -8
13 -10 12 -10 -2 0 -10 -4 -18 -9 -18 -6 0 -3 16 5 35 8 19 12 46 8 60 -4 17
-2 25 6 25 9 0 9 4 2 13 -5 6 -13 35 -16 62 -7 57 0 50 14 -16 8 -38 8 -34 4
26 -6 67 -39 239 -50 257 -3 4 -1 8 5 8 5 0 11 -8 13 -17 3 -10 5 1 5 24 0 26
-6 48 -15 55 -13 11 -14 8 -8 -20 5 -22 4 -32 -4 -32 -8 0 -10 -9 -6 -26 4
-15 3 -23 -3 -20 -5 3 -7 -3 -4 -15 4 -16 8 -17 14 -7 7 10 9 10 9 -3 0 -9 -2
-18 -5 -21 -3 -3 -7 -43 -8 -89 -2 -46 -1 -76 1 -66 2 9 8 17 14 17 5 0 7 8 4
17 -4 10 -4 14 0 10 9 -9 8 -115 -2 -208 -5 -54 -3 -68 11 -82 9 -9 12 -17 7
-17 -16 0 -24 -33 -10 -42 9 -5 9 -8 2 -8 -18 0 -26 -32 -12 -42 10 -7 9 -8
-2 -5 -10 3 -14 15 -13 33 l2 29 -12 -31 c-7 -17 -18 -29 -25 -27 -8 3 -10 -1
-6 -12 4 -9 13 -14 21 -11 9 4 13 0 11 -11 -2 -11 6 -19 22 -24 24 -7 12 -13
-20 -10 -8 0 -5 -5 8 -11 18 -9 31 -9 53 -1 16 6 39 9 50 6 15 -4 20 -3 15 5
-4 7 -19 12 -33 12 -15 0 -23 3 -20 7 4 3 0 14 -9 24 -12 13 -12 19 -3 25 7 4
10 3 5 -4 -3 -6 -1 -14 5 -18 6 -3 15 0 20 7 6 10 9 11 9 2 0 -7 -1 -15 -2
-18 -3 -6 50 -35 64 -35 5 0 -4 11 -19 25 l-28 26 37 -22 c21 -11 42 -18 48
-14 5 3 10 1 10 -5 0 -6 5 -8 10 -5 6 3 10 11 10 16 0 6 -5 7 -11 3 -7 -4 -9
0 -5 14 4 11 2 23 -4 27 -6 4 -11 1 -9 -6 3 -25 -1 -39 -11 -39 -5 0 -3 20 5
47 11 37 12 50 2 62 -10 11 -9 13 3 9 8 -3 15 -17 15 -31 -1 -15 3 -27 7 -27
10 0 30 79 24 96 -3 8 -1 14 4 14 6 0 10 5 10 12 0 6 -8 4 -19 -6 -10 -9 -18
-25 -16 -34 1 -9 0 -11 -2 -5 -3 9 -10 10 -23 3 -17 -9 -19 -7 -18 25 1 20 5
31 9 24 4 -7 4 -19 1 -28 -5 -13 -3 -14 10 -3 16 13 14 52 -3 52 -5 0 -6 7 -3
15 4 8 10 15 15 15 4 0 6 -6 3 -14 -3 -8 0 -17 5 -21 6 -3 8 -12 4 -18 -8 -13
28 12 39 28 5 6 5 24 2 40 -4 23 -3 26 5 15 9 -12 10 -8 6 15 -12 78 -12 95 2
115 9 12 16 39 17 60 0 21 4 36 8 34 5 -3 8 -1 8 5 0 6 7 8 15 5 11 -5 13 1
10 25 -2 17 -7 36 -11 42 -4 7 -3 9 3 6 13 -8 24 15 30 58 3 17 10 42 18 58
15 29 2 38 -14 10 -5 -10 -12 -15 -15 -12 -4 3 3 17 14 31 10 14 16 28 12 32
-3 4 1 4 11 0 12 -4 17 -1 17 10 0 9 3 16 8 17 4 0 18 3 32 5 23 4 23 3 -9
-28 -18 -18 -28 -34 -22 -36 9 -3 8 -10 -2 -25 -8 -12 -20 -40 -27 -62 -7 -22
-19 -50 -27 -62 -11 -16 -11 -22 -2 -25 10 -3 10 -14 0 -52 -6 -27 -10 -50 -8
-53 3 -2 11 19 18 46 12 46 29 69 29 39 0 -27 36 -98 47 -94 12 5 27 -39 18
-54 -4 -6 -1 -10 4 -10 6 0 11 10 12 23 0 12 3 34 5 50 5 26 -9 37 -21 17 -10
-17 -25 -11 -18 7 5 12 3 14 -8 8 -12 -7 -12 -6 0 6 10 10 15 11 18 2 2 -7 11
-9 19 -6 12 4 15 20 13 64 -1 32 1 62 4 66 4 3 7 -1 7 -9 0 -9 16 -32 35 -53
19 -21 32 -42 28 -47 -3 -6 -10 0 -17 13 -6 12 -19 23 -29 25 -14 2 -18 -3
-15 -24 2 -22 7 -26 28 -24 20 3 23 1 13 -9 -7 -7 -13 -18 -13 -24 0 -5 14 5
30 24 17 18 30 39 30 45 0 6 -5 4 -10 -4 -9 -13 -10 -13 -10 0 0 9 9 22 19 30
11 7 18 17 15 22 -3 4 2 8 10 8 9 0 16 5 16 11 0 6 -6 9 -14 6 -8 -3 -17 -1
-20 6 -2 7 -5 4 -5 -5 -1 -10 -6 -18 -11 -18 -7 0 -7 7 0 20 6 11 16 18 22 14
5 -4 15 0 20 7 7 11 11 11 15 2 8 -21 20 -15 25 12 3 14 1 25 -3 25 -5 0 -9
-4 -9 -10 0 -5 -3 -10 -7 -10 -5 0 -8 37 -9 83 0 54 -8 106 -22 154 l-22 72
35 35 c19 20 35 43 35 53 0 16 -2 16 -11 3 -9 -12 -10 -12 -5 3 3 10 6 34 6
53 0 19 3 34 8 34 4 0 6 -19 4 -42 -3 -43 -3 -43 13 -18 15 23 15 23 10 3 -8
-28 5 -30 28 -3 18 22 21 31 10 29 -20 -3 -33 2 -33 12 0 8 5 8 15 -1 12 -10
15 -10 15 3 0 8 -5 17 -10 19 -6 2 -4 11 5 23 9 11 14 15 11 9 -3 -7 1 -25 9
-40 l16 -29 -3 35 c-2 25 -10 38 -28 47 -25 13 -25 13 -2 13 19 0 21 3 13 18
-6 11 -6 24 0 33 5 7 9 25 9 38 0 22 -1 22 -31 -10 -18 -19 -32 -47 -35 -68
-7 -54 -14 -50 -12 7 1 28 4 49 7 47 6 -6 31 15 31 26 0 5 -6 7 -12 5 -7 -1
-10 -1 -7 1 4 2 5 14 3 26 -5 22 -5 22 5 0 12 -26 31 -31 31 -8 0 8 6 15 13
15 6 0 4 5 -5 11 -10 5 -18 20 -18 33 0 13 -9 31 -20 41 -11 10 -20 24 -20 32
0 25 -18 13 -25 -17 -4 -16 -10 -30 -14 -30 -17 0 -19 14 -6 41 18 33 19 59 4
59 -6 0 -8 -9 -4 -20 4 -11 2 -20 -4 -20 -5 0 -24 -21 -41 -46 -18 -25 -34
-44 -36 -42 -7 8 9 48 17 42 5 -3 9 0 9 5 0 6 -4 11 -8 11 -5 0 -9 6 -9 14 0
8 6 12 13 9 15 -5 25 9 31 48 2 17 0 29 -6 29 -6 0 -11 -8 -12 -17 0 -12 -2
-13 -6 -5 -3 9 -14 2 -30 -20 -14 -18 -22 -24 -18 -13 4 11 8 26 8 32 0 7 9
15 19 19 10 3 15 10 12 16 -4 6 -10 5 -16 -3 -6 -10 -7 -7 -3 9 4 13 2 22 -4
22 -6 0 -11 -5 -11 -12 0 -6 -2 -9 -5 -6 -9 9 7 38 21 38 8 0 14 6 14 14 0 8
6 17 13 19 8 4 7 6 -3 6 -8 1 -21 -8 -28 -20z m-42 -109 c0 -6 -10 -15 -22
-21 -13 -5 -28 -21 -34 -34 -11 -23 -10 -24 24 -21 20 1 37 7 40 14 2 7 8 12
13 12 6 0 5 -8 -1 -20 -6 -11 -8 -26 -4 -32 4 -6 3 -8 -3 -5 -6 4 -14 -5 -18
-21 -4 -15 -9 -22 -12 -15 -2 7 1 21 7 32 7 14 7 21 0 21 -5 0 -10 -6 -10 -12
0 -9 -3 -9 -8 -3 -15 22 -49 8 -91 -37 -28 -31 -38 -48 -28 -48 9 0 24 10 34
23 10 12 28 30 39 39 19 16 20 16 20 -2 0 -11 -4 -20 -9 -20 -5 0 -6 -7 -3
-16 3 -8 -3 -25 -14 -36 -22 -24 -24 -21 -10 16 15 41 -5 31 -41 -19 -18 -25
-37 -45 -42 -45 -6 0 0 11 13 25 13 14 21 25 17 25 -13 0 -67 -66 -63 -77 3
-6 -2 -14 -9 -17 -8 -3 -12 -12 -9 -21 3 -8 11 -12 17 -8 6 4 7 1 2 -7 -6 -10
-11 -9 -22 6 -13 18 -15 18 -24 2 -5 -9 -16 -24 -24 -32 -8 -8 -15 -18 -15
-21 0 -4 -9 -18 -19 -31 -11 -14 -17 -33 -14 -44 5 -19 6 -20 20 -3 13 16 13
16 3 -4 -5 -12 -15 -25 -22 -29 -6 -4 -8 -3 -5 3 3 5 0 10 -7 10 -11 0 -12 -4
-3 -19 10 -15 9 -21 -3 -28 -11 -7 -12 -10 -2 -10 10 0 12 -9 7 -32 -10 -43
-11 -44 -35 -23 -11 10 -23 16 -26 13 -6 -6 33 -88 42 -88 3 0 2 4 -1 10 -9
14 12 48 37 61 20 11 19 8 -5 -20 l-27 -33 22 -31 c15 -22 17 -28 5 -18 -21
16 -22 3 -2 -23 13 -18 14 -17 20 7 4 14 4 30 1 36 -4 5 -2 12 4 16 5 3 10 14
10 23 0 15 -2 15 -10 2 -5 -8 -10 -10 -10 -5 1 6 7 19 15 29 14 19 15 18 16
-10 2 -46 -2 -67 -16 -96 -12 -25 -11 -31 12 -65 21 -31 21 -34 5 -20 -11 10
-37 45 -58 78 -20 32 -41 59 -45 59 -5 0 -8 3 -8 8 1 4 1 14 -1 22 -1 11 -4
10 -11 -5 -7 -16 -8 -14 -4 9 6 27 5 28 -12 15 -16 -13 -17 -12 -5 2 7 9 10
30 7 50 -3 19 -3 28 1 22 3 -7 10 -13 15 -13 6 0 7 4 4 10 -7 11 23 73 73 150
36 54 38 59 41 81 0 5 5 8 11 4 13 -8 43 41 34 56 -4 7 -3 9 4 5 14 -8 54 44
47 61 -2 8 6 31 20 51 14 20 25 32 25 26 0 -6 -9 -23 -20 -37 -11 -14 -20 -29
-20 -33 0 -4 18 16 39 45 22 29 48 59 58 66 10 7 18 20 18 29 0 9 5 16 10 17
6 1 19 8 30 15 23 17 25 17 25 4z"/>
<path d="M4629 1733 c-1 -4 -1 -19 0 -33 2 -20 0 -22 -8 -10 -9 13 -11 13 -11
-1 0 -9 6 -19 14 -22 14 -6 29 -57 15 -57 -4 0 -15 -3 -25 -7 -13 -5 -15 -3
-8 8 4 8 10 23 11 34 1 11 -15 -16 -37 -59 -22 -44 -44 -84 -50 -90 -12 -12
-14 -30 -2 -23 4 3 7 -34 6 -81 l-1 -87 7 75 c7 78 9 78 16 -5 3 -27 8 -52 13
-55 15 -10 32 -50 21 -50 -5 0 -10 4 -10 10 0 19 -29 -2 -38 -28 -6 -15 -13
-35 -17 -45 -5 -13 -3 -16 7 -12 8 3 15 0 15 -7 0 -7 4 -26 7 -43 4 -16 7 -56
7 -88 -1 -46 2 -58 13 -54 23 9 26 -62 5 -100 -18 -31 -18 -33 -1 -33 13 0 14
-2 3 -9 -10 -7 -11 -13 -1 -30 6 -12 13 -43 16 -69 7 -77 9 -85 28 -127 10
-22 19 -62 20 -90 1 -37 5 -49 15 -47 9 2 11 -3 7 -13 -3 -9 -2 -14 3 -10 5 3
12 -1 15 -7 2 -7 3 -2 1 12 -2 14 -4 29 -4 33 -1 5 -5 6 -9 3 -5 -3 -9 0 -9 7
0 7 -4 21 -9 31 -5 13 -4 17 3 13 6 -4 14 -1 16 5 3 7 6 3 6 -10 1 -28 18 -62
31 -62 6 0 6 10 0 26 -6 14 -8 29 -5 34 2 4 -9 25 -25 45 -17 21 -30 43 -30
49 0 6 -9 28 -19 48 -11 19 -17 39 -13 44 4 4 1 4 -7 -1 -9 -5 -12 -4 -10 4 3
7 9 12 14 11 6 -1 13 9 17 22 7 22 7 22 5 -2 -1 -14 5 -31 13 -38 13 -10 13
-11 -2 -6 -19 7 -23 -3 -9 -25 6 -10 10 -10 16 -1 8 12 31 -7 53 -45 14 -24
16 -2 3 24 -6 10 -6 23 0 32 6 10 9 10 10 2 2 -13 5 -27 9 -40 1 -5 3 -13 4
-19 0 -6 9 -18 18 -27 23 -23 13 -53 -11 -35 -14 12 -14 11 -2 -4 7 -10 17
-15 22 -12 5 3 9 -3 10 -13 0 -11 4 -8 11 11 l11 29 18 -24 c10 -13 20 -21 24
-17 3 3 -2 14 -13 24 -21 21 -35 64 -21 64 5 0 9 -7 9 -15 0 -16 60 -88 68
-81 3 3 -1 12 -8 21 -8 10 -9 15 -1 15 6 0 11 9 11 20 0 11 -4 20 -10 20 -13
0 -50 32 -50 43 0 5 7 4 15 -3 8 -6 19 -9 24 -6 5 4 19 -4 31 -16 l22 -23 -22
42 c-12 24 -27 40 -33 36 -5 -3 -7 -1 -3 5 6 11 -29 81 -49 94 -5 4 -7 8 -2 8
4 0 1 10 -7 23 -8 12 -19 41 -26 65 -6 23 -16 42 -22 42 -9 0 -9 -3 0 -12 7
-7 12 -19 12 -27 0 -9 -6 -7 -20 9 -22 25 -28 56 -8 44 7 -4 8 -3 4 4 -4 6
-13 9 -21 6 -10 -4 -12 -12 -4 -31 7 -20 6 -28 -7 -38 -12 -8 -14 -14 -5 -19
6 -4 26 -31 45 -59 18 -29 52 -72 75 -96 22 -24 38 -47 35 -50 -9 -9 -113 107
-134 149 -10 19 -27 44 -39 54 -12 11 -21 27 -21 38 0 10 -5 18 -11 18 -6 0
-8 7 -5 16 3 9 3 21 -1 27 -4 7 -6 26 -4 44 1 20 -2 33 -9 33 -6 0 -9 4 -6 9
10 16 -15 71 -32 71 -14 0 -14 2 -3 9 10 6 11 13 2 29 -14 26 -14 43 0 19 6
-9 14 -15 20 -12 8 6 14 -16 10 -38 -1 -5 3 -6 9 -2 5 3 10 -3 10 -13 0 -11 7
-36 15 -57 12 -28 13 -40 4 -51 -8 -10 -8 -14 0 -14 6 0 11 5 11 11 0 5 4 7
10 4 6 -4 9 5 8 19 -1 15 -6 26 -10 26 -4 0 -8 11 -8 25 0 14 -4 25 -9 25 -8
0 -23 32 -25 57 -1 6 -14 23 -29 37 -29 27 -38 31 -36 19 1 -5 0 -17 -1 -28
-2 -17 -3 -17 -10 5 -12 37 -11 52 2 44 7 -4 8 -3 4 4 -4 7 -3 12 3 12 5 0 13
-5 16 -10 4 -6 11 -8 16 -5 5 4 9 3 9 -2 0 -4 9 -19 20 -33 19 -24 19 -24 13
-2 -4 16 -1 22 12 22 11 0 15 5 11 16 -3 8 -1 25 6 37 l12 22 7 -25 c4 -14 7
-57 8 -96 1 -50 5 -75 16 -84 10 -8 13 -22 9 -39 -4 -20 -3 -23 5 -11 7 10 11
11 11 3 0 -7 4 -13 9 -13 6 0 9 9 8 20 -1 11 -5 20 -9 20 -4 0 -5 7 -1 15 3
10 1 15 -7 13 -9 -2 -14 18 -16 71 -2 41 -7 77 -12 80 -4 3 -6 17 -2 31 5 18
10 4 19 -55 7 -44 19 -93 26 -110 l13 -30 1 31 c1 16 -4 35 -10 41 -18 18 -28
122 -12 134 16 14 17 41 1 57 -9 9 -9 12 3 12 11 0 11 2 1 8 -6 5 -13 28 -15
52 -2 31 -8 44 -19 46 -17 2 -15 -18 5 -43 5 -7 7 -19 4 -27 -3 -7 -2 -17 2
-22 5 -5 2 -22 -5 -39 -7 -16 -13 -24 -14 -17 0 6 -5 12 -11 12 -6 0 -9 -7 -5
-15 3 -8 1 -15 -3 -15 -15 0 -22 32 -11 45 13 16 10 244 -4 252 -5 4 -7 -16
-3 -53 4 -34 2 -53 -3 -45 -5 9 -7 -7 -6 -42 1 -31 -1 -57 -5 -57 -4 0 -5 -9
-2 -20 3 -13 0 -20 -8 -20 -9 0 -10 -3 -3 -8 15 -9 25 -65 15 -81 -8 -12 -11
-1 -28 107 -5 33 -33 46 -33 15 0 -9 -3 -14 -6 -10 -9 9 -11 148 -2 153 4 3 5
-3 1 -12 -4 -12 -3 -15 5 -10 14 8 14 3 3 -47 -10 -40 2 -59 17 -30 10 19 8
62 -3 101 -5 14 -3 22 4 22 6 0 11 -7 11 -15 0 -8 5 -15 10 -15 7 0 7 6 0 20
-10 18 -7 24 11 22 4 -1 7 19 7 44 1 26 4 54 7 64 4 13 -1 22 -15 30 -11 6
-20 7 -21 3z"/>
<path d="M2702 1698 c-7 -7 -12 -18 -12 -25 0 -7 -4 -13 -8 -13 -5 0 -14 -12
-20 -26 -7 -14 -17 -22 -22 -19 -6 4 -10 3 -9 -2 1 -4 -3 -19 -9 -33 -6 -14
-11 -19 -11 -12 -1 21 -20 4 -35 -31 -7 -18 -24 -43 -38 -57 -21 -19 -24 -29
-17 -48 11 -29 11 -32 -1 -32 -5 0 -10 8 -11 18 0 11 -5 6 -14 -13 -14 -33
-10 -48 6 -25 8 11 9 4 5 -25 l-5 -40 19 23 c10 13 17 29 14 36 -3 7 4 32 15
55 14 32 20 39 23 25 3 -15 7 -11 20 16 9 19 22 48 28 64 6 16 13 26 17 23 5
-5 -12 -49 -35 -92 -3 -5 4 -1 16 9 12 11 22 25 22 33 0 8 8 28 17 46 9 18 18
34 18 37 3 8 37 84 46 103 11 19 -1 23 -19 5z"/>
<path d="M2760 1677 c-21 -16 -44 -73 -37 -92 4 -8 2 -17 -3 -20 -6 -4 -11
-18 -11 -33 -1 -17 -3 -21 -6 -9 -2 9 -7 17 -9 17 -9 0 -34 -28 -34 -38 0 -5
-9 -17 -20 -27 -12 -10 -19 -24 -16 -31 3 -7 -4 -23 -15 -36 l-20 -23 17 28
c23 37 10 34 -17 -5 -13 -17 -18 -28 -11 -24 17 10 15 2 -9 -39 -20 -33 -20
-35 -3 -29 11 3 15 2 8 -3 -24 -19 -6 -106 26 -123 21 -11 30 11 30 78 0 23 5
42 10 42 7 0 7 6 0 20 -7 12 -7 20 -1 20 15 0 26 -43 12 -48 -8 -3 -10 -25 -6
-70 3 -40 2 -59 -3 -48 -8 18 -9 18 -15 2 -10 -25 -9 -26 12 -26 16 0 20 11
26 73 5 49 10 66 15 52 10 -26 56 -69 63 -58 3 4 -1 26 -9 48 -7 22 -13 49
-13 60 0 12 6 3 15 -20 10 -29 13 -32 10 -12 -2 15 0 27 5 27 4 0 7 14 7 30
-1 35 -5 36 -30 13 -11 -9 -18 -11 -18 -5 0 7 4 12 8 12 5 0 8 26 7 58 -2 45
-1 47 2 10 5 -54 29 -67 39 -20 10 47 12 48 13 10 1 -21 -2 -38 -6 -38 -5 0
-9 -17 -9 -37 -1 -21 -3 -83 -4 -138 -3 -88 -4 -95 -12 -58 -6 30 -18 49 -40
64 l-31 22 5 -82 c3 -47 10 -87 17 -94 11 -10 12 -7 6 12 -5 16 -4 21 4 17 7
-4 11 1 11 12 0 11 -7 22 -15 26 -8 3 -14 13 -14 23 1 17 2 17 6 1 5 -20 33
-25 33 -6 0 6 2 9 5 6 3 -3 0 -28 -6 -57 -16 -76 -7 -82 26 -15 21 41 30 53
33 40 2 -10 -1 -21 -6 -25 -14 -8 -34 -61 -23 -61 4 0 6 -13 3 -30 -3 -19 0
-30 8 -30 7 0 9 8 5 20 -3 10 1 33 11 51 10 20 17 60 18 103 1 39 7 80 13 91
5 11 7 31 2 45 -6 22 -7 20 -8 -12 -1 -21 -6 -38 -12 -38 -8 0 -9 12 -3 38 4
20 7 55 7 77 -1 30 1 35 7 20 7 -17 9 -15 9 12 1 17 6 35 11 38 6 3 11 25 11
48 l2 42 7 -40 c5 -26 7 -5 5 60 -1 58 2 106 8 113 6 8 -6 4 -26 -8 -33 -19
-37 -27 -38 -63 -1 -23 -1 -46 0 -50 1 -5 -3 -6 -8 -3 -10 7 -27 -11 -34 -39
-4 -11 -4 6 -1 37 5 53 4 57 -13 51 -14 -5 -11 1 10 26 15 18 27 43 27 57 0
28 0 27 -20 11z"/>
<path d="M2555 1586 c-11 -7 -30 -12 -42 -11 -14 1 -23 -4 -23 -12 0 -16 12
-17 29 0 11 10 13 9 8 -5 -4 -11 -2 -18 5 -18 6 0 2 -10 -10 -23 -12 -13 -19
-28 -15 -32 5 -5 0 -3 -9 4 -15 11 -22 9 -50 -21 -18 -19 -38 -43 -45 -54 -12
-18 -12 -18 -6 1 12 39 -17 0 -53 -71 -33 -65 -35 -67 -32 -32 1 20 5 36 9 35
4 -1 7 2 7 7 0 5 7 13 16 18 22 12 20 29 -1 21 -10 -3 -1 10 20 29 20 20 37
41 37 47 0 6 4 11 10 11 5 0 6 -8 3 -17 -6 -16 -5 -16 10 -4 21 16 22 31 3 31
-7 0 -19 7 -26 15 -7 8 -18 15 -24 15 -7 0 -7 -3 1 -8 8 -5 4 -13 -15 -26 -35
-24 -86 -122 -52 -101 6 3 10 1 10 -4 0 -6 -7 -11 -15 -11 -9 0 -15 -9 -15
-24 0 -14 -4 -27 -9 -30 -9 -6 -9 -72 1 -81 8 -8 -3 -54 -14 -61 -6 -4 -7 2
-3 17 5 17 4 21 -3 14 -6 -5 -13 -26 -15 -46 -2 -20 -7 -40 -10 -46 -3 -5 -8
-32 -11 -59 l-5 -49 16 50 c8 28 16 62 17 77 0 15 7 30 15 33 15 6 14 -1 -19
-110 -12 -38 -23 -79 -24 -90 -2 -11 -13 -48 -25 -82 -25 -74 -25 -79 -6 -63
8 7 15 22 15 34 1 18 2 19 13 5 7 -9 18 -14 25 -12 6 3 12 -1 12 -9 1 -18 36
54 42 86 5 26 -6 36 -16 14 -2 -7 -3 4 -1 25 2 20 0 35 -4 33 -4 -3 -7 -30 -7
-59 1 -54 -16 -92 -28 -61 -5 14 -1 44 31 191 8 40 13 81 10 91 -2 11 4 30 14
43 10 13 19 33 19 44 1 19 39 98 40 82 0 -5 -5 -17 -11 -28 -16 -31 -22 -100
-8 -97 6 2 14 -4 16 -12 4 -13 3 -13 -6 0 -8 12 -12 10 -20 -10 l-10 -25 0 24
c-1 39 -10 19 -15 -32 -3 -39 -2 -46 9 -37 8 6 11 18 8 26 -3 9 1 14 11 14 9
0 29 20 44 45 15 24 32 43 38 41 19 -7 75 59 79 92 3 24 1 30 -11 25 -9 -3
-13 -12 -9 -21 3 -8 1 -20 -4 -26 -5 -6 -9 -15 -9 -21 -1 -5 -10 -16 -22 -24
l-21 -14 19 34 c11 19 25 59 32 89 16 71 33 103 65 124 21 14 23 20 15 36 -13
24 -13 30 1 30 5 0 8 -4 4 -9 -3 -5 0 -13 6 -16 7 -5 9 0 7 12 -2 11 3 27 11
36 16 20 3 22 -24 3z"/>
<path d="M3560 1415 c0 -17 -4 -24 -11 -19 -8 5 -9 2 -2 -11 12 -21 5 -55 -11
-55 -7 0 -6 -3 2 -8 10 -7 10 -15 2 -36 -15 -40 -13 -45 27 -84 l37 -35 -33
17 -33 18 26 -35 c28 -36 34 -61 14 -55 -7 3 -14 14 -16 25 -2 12 -13 29 -24
39 -21 19 -21 19 -9 -3 10 -20 9 -23 -8 -23 -14 0 -19 5 -16 19 2 11 -3 27
-10 38 -19 24 -19 39 0 23 9 -8 15 -8 15 -2 0 6 3 18 7 28 5 13 3 15 -7 9 -10
-6 -12 -4 -7 8 3 9 2 19 -3 22 -5 3 -12 -6 -16 -21 -5 -19 -9 -22 -15 -12 -9
14 -11 9 -12 -37 0 -16 -1 -17 -4 -2 -6 24 -15 22 -46 -15 -32 -36 -31 -37 47
-69 29 -12 35 -17 22 -22 -9 -4 -16 -2 -16 2 0 13 -58 32 -65 21 -8 -13 5 -60
17 -60 5 0 6 6 2 13 -4 7 -2 7 7 -2 11 -10 11 -15 2 -18 -17 -6 -6 -152 12
-172 9 -9 10 -22 4 -44 -5 -16 -6 -34 -3 -38 2 -5 -1 -17 -8 -28 -10 -16 -10
-23 0 -33 16 -16 28 -2 12 17 -8 10 -9 15 -1 15 6 0 11 -6 12 -12 0 -7 5 -4
10 7 8 18 9 18 7 -5 -2 -44 18 -76 59 -98 27 -15 33 -15 33 -1 0 5 -5 7 -12 3
-8 -5 -9 -2 -5 10 4 9 0 28 -9 41 -15 23 -15 25 10 36 14 7 26 16 26 21 0 5 5
6 11 2 8 -4 2 -12 -15 -21 -14 -7 -26 -20 -26 -28 0 -18 17 -20 22 -3 3 7 7 2
10 -10 4 -12 2 -20 -3 -16 -11 6 -11 -4 1 -31 l9 -20 0 20 c1 12 13 -3 32 -40
18 -35 28 -48 25 -32 -6 24 -5 27 8 15 8 -8 11 -19 6 -28 -8 -17 4 -53 38
-118 27 -51 36 -55 16 -7 -21 52 -17 53 17 7 17 -23 37 -42 45 -42 9 0 12 -5
9 -10 -5 -8 -11 -7 -20 0 -11 9 -15 7 -20 -13 -10 -38 -2 -71 18 -75 19 -4 24
24 5 30 -8 3 -8 9 -1 23 9 16 12 14 18 -16 8 -37 30 -58 59 -59 17 0 18 6 14
73 -2 39 -3 64 -1 55 5 -21 14 -23 31 -6 7 7 12 8 12 2 0 -5 -6 -16 -12 -22
-7 -7 -13 -26 -14 -42 -1 -21 3 -28 16 -27 14 1 17 8 14 37 -2 19 -1 27 2 17
7 -21 18 -22 38 -1 18 18 11 38 -10 30 -10 -4 -14 4 -15 27 -1 18 -1 35 0 40
6 39 0 81 -18 125 -11 28 -16 52 -11 52 6 0 14 -10 19 -22 4 -12 10 -17 14
-11 3 5 -6 38 -20 74 -14 35 -26 76 -27 91 -1 14 -4 24 -8 22 -3 -2 -14 17
-24 43 -9 27 -24 54 -33 61 -10 8 -11 12 -2 12 7 0 9 5 6 11 -4 6 -9 8 -12 5
-3 -3 -14 6 -25 19 -14 18 -30 25 -56 26 -26 1 -30 3 -13 6 l24 5 -29 24 -29
24 29 -14 c16 -8 33 -20 37 -28 4 -7 11 -10 14 -6 10 10 -36 79 -48 71 -8 -5
-8 -8 1 -11 7 -2 12 -8 12 -14 0 -6 -9 -3 -20 7 -13 12 -20 31 -20 57 0 21 -4
38 -9 38 -14 0 -19 -23 -9 -43 5 -10 5 -24 -1 -35 -9 -16 -10 -15 -11 3 0 11
-2 35 -4 53 -2 17 -4 40 -5 50 -1 9 -15 33 -31 52 l-29 35 -10 -25 c-9 -23
-10 -23 -7 9 4 46 29 49 45 5 7 -21 17 -31 25 -28 9 3 16 -5 21 -23 l7 -28 12
24 c8 13 15 20 18 15 3 -5 3 -2 1 6 -3 8 -7 24 -9 35 -7 34 -26 75 -35 75 -12
0 -11 -5 6 -47 19 -45 19 -66 0 -33 -11 19 -14 21 -15 8 0 -10 -4 -18 -10 -18
-12 0 -13 27 -1 34 5 3 7 15 4 27 -4 16 -8 17 -14 7 -6 -9 -9 -9 -9 -1 0 6 5
15 10 18 20 13 10 51 -20 73 l-30 23 0 -26z"/>
<path d="M4776 1103 c-4 -14 -4 -29 1 -32 12 -9 15 -54 5 -60 -5 -3 -12 -17
-16 -31 -6 -19 -5 -21 3 -10 9 12 11 11 11 -8 0 -13 4 -21 9 -17 6 3 8 19 6
35 -2 16 0 32 5 35 7 5 42 -57 39 -71 0 -4 6 -11 15 -16 20 -11 21 -29 1 -22
-8 3 -20 23 -26 45 -13 43 -29 45 -21 2 3 -15 19 -38 36 -52 17 -14 41 -36 53
-47 12 -12 23 -21 25 -20 2 0 0 -3 -4 -9 -12 -13 -10 -37 2 -30 6 3 10 -2 10
-11 0 -10 3 -15 6 -11 3 3 14 -3 25 -14 22 -22 49 -16 42 11 -7 27 -71 90
-102 101 -22 8 -27 16 -27 44 0 19 4 31 10 28 5 -3 6 -1 2 6 -4 6 -12 8 -18 5
-7 -5 -9 -1 -5 9 4 10 2 16 -5 14 -7 -1 -14 6 -16 17 -2 11 0 16 6 12 20 -12
24 15 5 32 -11 9 -25 26 -31 37 -11 19 -12 19 -9 -4 1 -13 -4 -25 -11 -27 -7
-1 -8 0 -3 2 5 3 5 20 1 39 -4 19 -5 36 -2 39 3 4 1 6 -5 6 -6 0 -14 -12 -17
-27z"/>
<path d="M2475 390 c-22 -37 -42 -67 -46 -64 -4 2 -9 -5 -12 -16 -4 -16 -2
-18 13 -10 27 14 34 12 20 -5 -7 -8 -18 -15 -25 -15 -17 0 -23 -29 -14 -60 7
-24 7 -24 9 5 1 26 3 27 10 10 8 -19 9 -19 9 2 1 12 -5 24 -11 26 -8 3 -6 6 5
6 31 2 32 0 29 -25 -3 -20 0 -25 14 -22 9 1 19 9 22 16 2 8 -2 10 -15 5 -17
-6 -17 -5 1 15 20 23 27 27 25 15 -3 -21 2 -33 16 -33 11 0 15 11 14 38 0 27
-2 32 -8 18 -7 -19 -8 -19 -13 1 -4 14 0 24 8 27 8 3 14 13 14 22 0 14 -3 14
-15 4 -13 -11 -15 -9 -11 11 3 13 5 27 5 32 1 4 8 7 15 7 12 0 13 6 5 30 -6
17 -14 30 -17 30 -4 0 -25 -32 -47 -70z"/>
</g>
</svg>
